<svg width="50" height="50" viewBox="0 0 50 50" fill="none" xmlns="http://www.w3.org/2000/svg">
<rect x="-0.00012207" y="-0.000488281" width="50" height="50" rx="8.33333" fill="#1877F2"/>
<path d="M22.7765 26.4203C22.6902 26.4203 20.8787 26.4209 20.0433 26.42C19.6132 26.4198 19.4597 26.2652 19.4597 25.8324C19.4592 24.7205 19.4589 23.6087 19.4597 22.4969C19.46 22.0696 19.6223 21.9065 20.0469 21.9062C20.8823 21.9057 22.6838 21.9059 22.7765 21.9059C22.7765 21.8298 22.7762 20.2246 22.7765 19.4854C22.7771 18.3925 22.972 17.3464 23.5273 16.3886C24.0957 15.4082 24.9229 14.7367 25.983 14.3484C26.662 14.0995 27.3668 14.0002 28.0873 13.9997C28.9888 13.9991 29.8902 14 30.7919 14.0016C31.1794 14.0022 31.3513 14.1735 31.3521 14.5637C31.3538 15.6095 31.3538 16.6554 31.3521 17.7009C31.3516 18.0953 31.1868 18.2537 30.7906 18.2581C30.0516 18.266 29.3122 18.2611 28.5741 18.2908C27.8285 18.2908 27.4364 18.6549 27.4364 19.4265C27.4185 20.2427 27.429 21.0598 27.429 21.9057C27.4988 21.9057 29.6204 21.9054 30.6121 21.9057C31.0625 21.9057 31.2165 22.0605 31.2165 22.5134C31.2165 23.6192 31.2163 24.7252 31.2154 25.831C31.2152 26.2773 31.0705 26.4198 30.6173 26.42C29.6257 26.4206 27.5123 26.4203 27.4199 26.4203V35.3702C27.4199 35.8473 27.2697 35.9994 26.7989 35.9994C25.6511 35.9994 24.503 35.9997 23.3551 35.9994C22.939 35.9994 22.7768 35.8377 22.7768 35.4216C22.7765 32.5069 22.7765 26.5226 22.7765 26.4203Z" fill="white"/>
</svg>
