<svg width="50" height="50" viewBox="0 0 50 50" fill="none" xmlns="http://www.w3.org/2000/svg">
<rect x="-0.00012207" y="-0.000488281" width="50" height="50" rx="8.33333" fill="#0077B5"/>
<g clip-path="url(#clip0_272_48)">
<path d="M37.9135 37.555L37.9197 37.554V28.4955C37.9197 24.064 36.9657 20.6504 31.785 20.6504C29.2945 20.6504 27.6232 22.0171 26.9408 23.3128H26.8688V21.0641H21.9567V37.554H27.0715V29.3888C27.0715 27.2389 27.4791 25.1601 30.1415 25.1601C32.7647 25.1601 32.8038 27.6135 32.8038 29.5267V37.555H37.9135Z" fill="white"/>
<path d="M13.6278 21.0669H18.7488V37.5568H13.6278V21.0669Z" fill="white"/>
<path d="M16.1861 12.8569C14.5488 12.8569 13.2202 14.1856 13.2202 15.8229C13.2202 17.4603 14.5488 18.8167 16.1861 18.8167C17.8235 18.8167 19.1521 17.4603 19.1521 15.8229C19.1511 14.1856 17.8225 12.8569 16.1861 12.8569Z" fill="white"/>
</g>
<defs>
<clipPath id="clip0_272_48">
<rect width="26" height="26" fill="white" transform="translate(12.0591 10.9995)"/>
</clipPath>
</defs>
</svg>
