<svg width="50" height="50" viewBox="0 0 50 50" fill="none" xmlns="http://www.w3.org/2000/svg">
<rect x="-6.10352e-05" y="-0.000488281" width="50" height="50" rx="8.33333" fill="black"/>
<g clip-path="url(#clip0_267_28)">
<path d="M20.0498 17.2241H16.7482L30.4262 34.2037H33.7278L20.0498 17.2241Z" stroke="white" stroke-width="1.59184" stroke-linecap="round" stroke-linejoin="round"/>
<path d="M17.3204 34.4644C17.1285 34.4744 16.9338 34.4188 16.7765 34.2905L16.7159 34.2358C16.5497 34.0695 16.4748 33.8481 16.4865 33.6304L17.3204 34.4644ZM24.4894 27.5884L18.2169 33.8608L17.0909 32.7349L23.3634 26.4624L24.4894 27.5884ZM33.3849 18.6929L27.1124 24.9653L25.9865 23.8394L32.2589 17.5669L33.3849 18.6929ZM33.1544 16.9624C33.3467 16.9521 33.5418 17.0088 33.6993 17.1372L33.7599 17.1919C33.9259 17.3579 33.9998 17.579 33.9884 17.7964L33.1544 16.9624Z" fill="white" stroke="white" stroke-width="1.06123"/>
</g>
<defs>
<clipPath id="clip0_267_28">
<rect width="20" height="20" fill="white" transform="translate(15.0592 14.9995)"/>
</clipPath>
</defs>
</svg>
