<svg width="87" height="24" viewBox="0 0 87 24" fill="none" xmlns="http://www.w3.org/2000/svg">
<g clip-path="url(#clip0_158_8)">
<path d="M34.3885 18.8771C33.0264 18.8771 31.8775 18.6844 30.9419 18.2992C30.0202 17.914 29.3255 17.3705 28.8577 16.6688C28.3899 15.9534 28.156 15.1141 28.156 14.1511V14.0272H30.3849V14.3574C30.3849 14.9078 30.5085 15.3687 30.7563 15.7402C31.004 16.0979 31.4166 16.373 31.9944 16.5657C32.5725 16.7445 33.3703 16.8339 34.3885 16.8339C35.2691 16.8339 35.9708 16.772 36.4935 16.6482C37.0164 16.5106 37.3877 16.3043 37.608 16.0291C37.8419 15.7402 37.9589 15.3824 37.9589 14.9559C37.9589 14.3506 37.7663 13.9103 37.3808 13.6351C36.9956 13.36 36.3696 13.1398 35.503 12.9747L32.1183 12.4175C31.3479 12.2662 30.6601 12.046 30.0546 11.7571C29.4493 11.4544 28.9746 11.0554 28.6305 10.5601C28.3004 10.0511 28.1353 9.41819 28.1353 8.66148C28.1353 8.16616 28.2453 7.67774 28.4656 7.19621C28.6856 6.71466 29.0295 6.28127 29.4973 5.89605C29.9651 5.5108 30.5706 5.20812 31.3135 4.98798C32.0701 4.75409 32.9921 4.63715 34.0789 4.63715C35.4271 4.63715 36.5348 4.84352 37.4016 5.25626C38.2684 5.66903 38.908 6.23311 39.3209 6.94855C39.7474 7.65022 39.9605 8.45509 39.9605 9.36315V9.48697H37.7524V9.21869C37.7524 8.65458 37.6286 8.1868 37.3808 7.81533C37.1333 7.4301 36.7274 7.14805 36.1634 6.96919C35.5992 6.77657 34.8357 6.68027 33.8725 6.68027C33.0333 6.68027 32.3522 6.74905 31.8295 6.88664C31.3205 7.02423 30.9489 7.2306 30.715 7.50576C30.4811 7.76719 30.3641 8.11112 30.3641 8.53764C30.3641 8.92289 30.4467 9.23933 30.6119 9.48697C30.777 9.73463 31.0314 9.93413 31.3753 10.0855C31.7193 10.2231 32.1596 10.3537 32.6961 10.4776L36.0601 11.0554C36.982 11.2205 37.7455 11.4682 38.351 11.7984C38.9701 12.1286 39.4309 12.5482 39.7336 13.0573C40.0362 13.5663 40.1877 14.1579 40.1877 14.8321C40.1877 15.5338 39.9882 16.1942 39.5892 16.8133C39.1901 17.4324 38.5641 17.9346 37.7111 18.3199C36.8582 18.6913 35.7505 18.8771 34.3885 18.8771ZM46.6818 18.6707H43.9164L40.8412 8.41382H43.1527L44.8655 14.2336L45.3402 16.8752H45.5054L46.2689 14.0272L48.4152 8.41382H51.2631L53.4302 14.0272L54.1937 16.8752H54.3588L54.8335 14.2336L56.5464 8.41382H58.8166L55.7004 18.6707H52.935L50.6853 12.7683L49.9011 10.2506H49.7362L48.9519 12.7683L46.6818 18.6707ZM62.1776 18.6707H59.9487V8.41382H62.1776V18.6707ZM62.1776 7.21683H59.9487V4.84352H62.1776V7.21683ZM69.0914 18.8771C67.4403 18.8771 66.1609 18.5606 65.2528 17.9277C64.3585 17.2949 63.9112 16.3868 63.9112 15.2036V15.1417H66.1401V15.3068C66.1401 15.9809 66.3604 16.4487 66.8005 16.7101C67.2547 16.9578 68.0181 17.0816 69.0914 17.0816C70.0957 17.0816 70.7768 16.9784 71.1344 16.772C71.506 16.5519 71.6916 16.2148 71.6916 15.7608C71.6916 15.3343 71.5472 15.0316 71.2582 14.8527C70.983 14.6739 70.474 14.5363 69.731 14.44L66.9243 14.0685C65.9475 13.9447 65.184 13.6695 64.6337 13.243C64.0833 12.8027 63.8081 12.1492 63.8081 11.2824C63.8081 10.6771 63.9871 10.1474 64.3446 9.69334C64.7024 9.22556 65.2389 8.86096 65.9544 8.59955C66.6699 8.33814 67.5504 8.20745 68.5959 8.20745C69.6418 8.20745 70.536 8.34504 71.279 8.62019C72.0355 8.89537 72.6136 9.30812 73.0124 9.85845C73.4253 10.4088 73.6317 11.0898 73.6317 11.9016V11.9635H71.4234V11.8397C71.4234 11.4407 71.3408 11.1036 71.1756 10.8284C71.0107 10.5532 70.7148 10.3469 70.2883 10.2093C69.8756 10.0579 69.2909 9.98227 68.5341 9.98227C67.5847 9.98227 66.9243 10.0923 66.553 10.3125C66.1814 10.5326 65.9957 10.8835 65.9957 11.365C65.9957 11.764 66.1334 12.0529 66.4086 12.2318C66.6835 12.4106 67.1995 12.5551 67.9563 12.6651L70.3296 12.9954C71.5403 13.1467 72.4346 13.4425 73.0124 13.8828C73.5904 14.323 73.8792 14.9697 73.8792 15.8227C73.8792 16.4556 73.6797 17.0059 73.2809 17.4737C72.8818 17.9277 72.3246 18.2786 71.6091 18.5262C70.8938 18.7601 70.0544 18.8771 69.0914 18.8771ZM80.3371 18.8771C78.6863 18.8771 77.4066 18.5606 76.4987 17.9277C75.6045 17.2949 75.1572 16.3868 75.1572 15.2036V15.1417H77.3861V15.3068C77.3861 15.9809 77.6061 16.4487 78.0465 16.7101C78.5004 16.9578 79.2641 17.0816 80.3371 17.0816C81.3417 17.0816 82.0226 16.9784 82.3803 16.772C82.7517 16.5519 82.9376 16.2148 82.9376 15.7608C82.9376 15.3343 82.793 15.0316 82.5042 14.8527C82.229 14.6739 81.72 14.5363 80.977 14.44L78.1703 14.0685C77.1935 13.9447 76.4298 13.6695 75.8794 13.243C75.3293 12.8027 75.0541 12.1492 75.0541 11.2824C75.0541 10.6771 75.2329 10.1474 75.5906 9.69334C75.9484 9.22556 76.4849 8.86096 77.2004 8.59955C77.9157 8.33814 78.7963 8.20745 79.8419 8.20745C80.8875 8.20745 81.7818 8.34504 82.5247 8.62019C83.2815 8.89537 83.8593 9.30812 84.2584 9.85845C84.671 10.4088 84.8775 11.0898 84.8775 11.9016V11.9635H82.6694V11.8397C82.6694 11.4407 82.5868 11.1036 82.4216 10.8284C82.2565 10.5532 81.9608 10.3469 81.5343 10.2093C81.1214 10.0579 80.5367 9.98227 79.7801 9.98227C78.8307 9.98227 78.1703 10.0923 77.7987 10.3125C77.4274 10.5326 77.2417 10.8835 77.2417 11.365C77.2417 11.764 77.3792 12.0529 77.6543 12.2318C77.9295 12.4106 78.4455 12.5551 79.2021 12.6651L81.5756 12.9954C82.7863 13.1467 83.6806 13.4425 84.2584 13.8828C84.8362 14.323 85.1252 14.9697 85.1252 15.8227C85.1252 16.4556 84.9257 17.0059 84.5266 17.4737C84.1276 17.9277 83.5706 18.2786 82.855 18.5262C82.1395 18.7601 81.3004 18.8771 80.3371 18.8771Z" fill="white"/>
<path d="M14.1619 0.781982H9.5459V9.52445L14.1619 5.15321V0.781982Z" fill="white"/>
<path d="M0.80362 14.1403L0.803619 9.52429H9.5461L5.17486 14.1403H0.80362Z" fill="white"/>
<path d="M22.9044 9.52448V14.1405H14.162L18.5332 9.52448H22.9044Z" fill="white"/>
<path d="M14.1803 9.50604H9.52747V22.8829H14.1803V9.50604Z" fill="white"/>
</g>
<defs>
<clipPath id="clip0_158_8">
<rect width="85.7925" height="22.2517" fill="white" transform="translate(0.803467 0.781433)"/>
</clipPath>
</defs>
</svg>
