<svg width="85" height="20" viewBox="0 0 85 20" fill="none" xmlns="http://www.w3.org/2000/svg">
<path d="M29.0676 18.4043C27.1231 18.4043 25.6066 17.8666 24.5178 16.7905C23.4421 15.7148 22.9041 14.1787 22.9041 12.1826V4.56097H26.0539V12.066C26.0539 14.503 27.065 15.7213 29.0869 15.7213C30.0722 15.7213 30.824 15.4296 31.3423 14.8463C31.8607 14.2502 32.12 13.3233 32.12 12.066V4.56097H35.2309V12.1826C35.2309 14.1787 34.6866 15.7148 33.5977 16.7905C32.522 17.8666 31.0118 18.4043 29.0676 18.4043Z" fill="white"/>
<path d="M36.7684 11.4826H42.271V13.9131H36.7684V11.4826Z" fill="white"/>
<path d="M46.016 7.12745H41.6606V4.56097H53.5211V7.12745H49.1658V18.1711H46.016V7.12745Z" fill="white"/>
<path d="M64.3399 7.71069V18.1711H61.4625V16.9268C61.0605 17.3803 60.5809 17.7304 60.0235 17.9767C59.4661 18.2098 58.8635 18.3265 58.2153 18.3265C56.8415 18.3265 55.7527 17.9311 54.9491 17.1406C54.1455 16.3498 53.7435 15.1767 53.7435 13.6213V7.71069H56.7766V13.1742C56.7766 14.8593 57.4832 15.7019 58.8959 15.7019C59.6218 15.7019 60.2051 15.4685 60.6458 15.0019C61.0864 14.5223 61.3068 13.8157 61.3068 12.8826V7.71069H64.3399Z" fill="white"/>
<path d="M69.0746 9.09129C69.4376 8.58578 69.9235 8.20339 70.5327 7.94415C71.155 7.68491 71.8678 7.5553 72.6714 7.5553V10.3551C72.3346 10.3292 72.1077 10.3162 71.991 10.3162C71.1225 10.3162 70.4422 10.5625 69.9494 11.055C69.4569 11.5346 69.2107 12.2605 69.2107 13.2327V18.1712H66.1776V7.71084H69.0746V9.09129Z" fill="white"/>
<path d="M79.8608 7.5553C81.1571 7.5553 82.2004 7.94415 82.9912 8.72188C83.7948 9.49961 84.1965 10.6532 84.1965 12.1827V18.1712H81.1634V12.6494C81.1634 11.8198 80.9821 11.2041 80.6191 10.8023C80.2562 10.3875 79.7312 10.1801 79.0441 10.1801C78.2795 10.1801 77.6703 10.4199 77.2165 10.8995C76.7628 11.3661 76.5359 12.0661 76.5359 12.9994V18.1712H73.5028V7.71084H76.3998V8.93575C76.8018 8.49503 77.3008 8.15802 77.8971 7.92471C78.4932 7.67844 79.148 7.5553 79.8608 7.5553Z" fill="white"/>
<path fill-rule="evenodd" clip-rule="evenodd" d="M9.3537 1.02368C9.87096 0.506428 10.7096 0.506428 11.2268 1.02368L16.0706 5.86748L11.2048 10.5121C10.6757 11.0172 9.83728 10.9977 9.33219 10.4686C8.8271 9.93946 8.8466 9.10107 9.37574 8.59598L10.8697 7.16995H7.64126C5.05663 7.16995 2.96136 9.26522 2.96136 11.8499C2.96136 14.4346 5.05663 16.5298 7.64126 16.5298H14.1755C14.9069 16.5298 15.5001 17.1228 15.5001 17.8542C15.5001 18.5858 14.9069 19.1788 14.1755 19.1788H7.64126C3.59362 19.1788 0.312378 15.8976 0.312378 11.8499C0.312378 7.80221 3.59362 4.52094 7.64126 4.52094H10.9779L9.3537 2.89682C8.83647 2.37956 8.83647 1.54094 9.3537 1.02368Z" fill="white"/>
</svg>
