<svg width="72" height="24" viewBox="0 0 72 24" fill="none" xmlns="http://www.w3.org/2000/svg">
<g clip-path="url(#clip0_158_14)">
<path d="M38.8346 18.2925L33.9958 12.2395L38.5268 6.88757H35.5347L31.4992 11.983V6.88757H29.0713V18.2925H31.4992V14.7872L32.3885 13.7271L35.8425 18.2925H38.8346Z" fill="white"/>
<path d="M44.5433 18.4977C47.9972 18.4977 50.5107 16.0355 50.5107 12.5986C50.5107 9.1618 47.9972 6.69958 44.5433 6.69958C41.1064 6.69958 38.593 9.1618 38.593 12.5986C38.593 16.0355 41.1064 18.4977 44.5433 18.4977ZM44.5433 16.3433C42.4403 16.3433 41.0893 14.7189 41.0893 12.5986C41.0893 10.4613 42.4403 8.85401 44.5433 8.85401C46.6466 8.85401 48.0143 10.4613 48.0143 12.5986C48.0143 14.7189 46.6466 16.3433 44.5433 16.3433Z" fill="white"/>
<path d="M58.4043 18.2925C60.5758 18.2925 61.7216 16.9246 61.7216 15.2147C61.7216 13.7784 60.7469 12.5986 59.533 12.4105C60.6102 12.1882 61.4993 11.2307 61.4993 9.79436C61.4993 8.27257 60.3879 6.88757 58.2162 6.88757H52.2147V18.2925H58.4043ZM57.6863 11.4529H54.6426V8.97362H57.6863C58.5069 8.97362 59.02 9.5037 59.02 10.2218C59.02 10.94 58.5069 11.4529 57.6863 11.4529ZM57.7716 16.1893H54.6426V13.539H57.7716C58.7292 13.539 59.2422 14.1545 59.2422 14.8727C59.2422 15.6934 58.6951 16.1893 57.7716 16.1893Z" fill="white"/>
<path d="M71.6232 18.2925V16.1551H65.9805V13.5732H71.5036V11.4359H65.9805V9.02492H71.6232V6.88757H63.5526V18.2925H71.6232Z" fill="white"/>
<path d="M22.2078 6.61095V3.86208H12.8V0.781433H9.79045V3.86208H0.595947V6.61095H9.81414V9.09915H2.82348V20.1657H5.66715V11.848H9.81414V23.0331H12.7526V11.848H17.2788V17.0614C17.2788 17.3221 17.1603 17.4406 16.7811 17.4406C16.402 17.4406 15.0038 17.4406 13.819 17.3932C14.2218 18.1515 14.6484 19.36 14.7669 20.1657C16.6152 20.1657 17.966 20.1183 18.9613 19.6918C19.9329 19.2652 20.2172 18.4595 20.2172 17.1088V9.09915H12.7526V6.61095H22.2078Z" fill="white"/>
</g>
<defs>
<clipPath id="clip0_158_14">
<rect width="71.2053" height="22.2517" fill="white" transform="translate(0.595947 0.781433)"/>
</clipPath>
</defs>
</svg>
