<svg xmlns="http://www.w3.org/2000/svg" width="370" height="90" fill="none"><g fill="#fff" clip-path="url(#a)"><path fill-rule="evenodd" d="M9 0h72a9 9 0 0 1 9 9v72a9 9 0 0 1-9 9H9a9 9 0 0 1-9-9V9a9 9 0 0 1 9-9Zm3.61 8.696a3.913 3.913 0 1 0 0 7.826h.076a3.913 3.913 0 1 0 0-7.826h-.077Zm13.711 0a3.913 3.913 0 1 0 0 7.826h.077a3.913 3.913 0 0 0 0-7.826h-.077Zm13.712 0a3.913 3.913 0 1 0 0 7.826h.077a3.913 3.913 0 0 0 0-7.826h-.077Z" clip-rule="evenodd"/><path d="M161.716 76.305h-10.653V49.627h-29.319v26.678h-10.565V13.882h10.565v25.797h29.319V13.882h10.653v62.423Zm4.939-11.622c0-7.66 5.635-11.886 12.943-12.943l11.005-1.672c2.465-.352 3.17-1.585 3.17-3.082 0-3.61-2.465-6.515-8.1-6.515-5.371 0-8.364 3.434-8.805 7.748l-9.332-2.113c.792-7.396 7.484-14 18.049-14 13.206 0 18.225 7.484 18.225 16.025v21.306c0 3.874.44 6.427.528 6.868h-9.509c-.088-.265-.44-2.025-.44-5.459-2.025 3.258-6.251 6.78-13.206 6.78-8.981 0-14.528-6.164-14.528-12.943Zm16.465 4.93c5.722 0 10.653-2.729 10.653-11.093v-1.937l-11.182 1.673c-3.169.528-5.723 2.289-5.723 5.81 0 2.906 2.202 5.547 6.252 5.547Zm65.084-36.185-16.816 42.877h-10.213l-17.433-42.878h11.27l11.357 30.64 11.094-30.64h10.741Zm-1.642 31.255c0-7.66 5.635-11.886 12.943-12.943l11.005-1.672c2.465-.352 3.17-1.585 3.17-3.082 0-3.61-2.466-6.515-8.101-6.515-5.37 0-8.364 3.434-8.804 7.748l-9.332-2.113c.792-7.396 7.483-14 18.048-14 13.207 0 18.225 7.484 18.225 16.025v21.306c0 3.874.441 6.427.529 6.868h-9.509c-.088-.265-.44-2.025-.44-5.459-2.025 3.258-6.251 6.78-13.207 6.78-8.98 0-14.527-6.164-14.527-12.943Zm16.464 4.93c5.723 0 10.654-2.729 10.654-11.093v-1.937l-11.182 1.673c-3.17.528-5.723 2.289-5.723 5.81 0 2.906 2.201 5.547 6.251 5.547Zm36.989-18.049v24.74h-10.213V33.428h9.949v5.723c2.817-4.93 7.923-6.955 12.678-6.955 10.477 0 15.495 7.572 15.495 16.992v27.118h-10.213V50.948c0-5.282-2.377-9.509-8.804-9.509-5.811 0-8.892 4.49-8.892 10.125Zm31.441 13.119c0-7.66 5.634-11.886 12.942-12.943l11.005-1.672c2.466-.352 3.17-1.585 3.17-3.082 0-3.61-2.465-6.515-8.1-6.515-5.371 0-8.364 3.434-8.804 7.748l-9.333-2.113c.792-7.396 7.484-14 18.049-14 13.207 0 18.225 7.484 18.225 16.025v21.306c0 3.874.44 6.427.528 6.868h-9.508c-.088-.265-.441-2.025-.441-5.459-2.025 3.258-6.251 6.78-13.206 6.78-8.981 0-14.527-6.164-14.527-12.943Zm16.464 4.93c5.723 0 10.653-2.729 10.653-11.093v-1.937l-11.181 1.673c-3.17.528-5.723 2.289-5.723 5.81 0 2.906 2.201 5.547 6.251 5.547Z"/></g><defs><clipPath id="a"><path fill="#fff" d="M0 0h369.138v90H0z"/></clipPath></defs></svg>