<svg width="69" height="24" viewBox="0 0 69 24" fill="none" xmlns="http://www.w3.org/2000/svg">
<g clip-path="url(#clip0_158_47)">
<path d="M26.1631 16.9102H20.2573V6.38647H25.8491C26.6554 6.38647 27.3202 6.48072 27.8439 6.66922C28.3779 6.84723 28.7757 7.12995 29.0375 7.5174C29.2994 7.89437 29.4301 8.38129 29.4301 8.97815C29.4301 9.63784 29.2521 10.1614 28.8961 10.5488C28.5401 10.9363 28.0009 11.1614 27.2784 11.2243V11.4285C28.1685 11.4599 28.8281 11.7164 29.2576 12.1981C29.6972 12.6798 29.9172 13.2766 29.9172 13.9887C29.9172 14.596 29.781 15.1196 29.5088 15.5594C29.2469 15.9992 28.8385 16.3343 28.2837 16.5647C27.7286 16.795 27.0218 16.9102 26.1631 16.9102ZM23.2102 12.685V14.2557H26.0533C26.3359 14.2557 26.5505 14.2138 26.6972 14.1301C26.8438 14.0463 26.9172 13.8316 26.9172 13.4861C26.9172 13.13 26.849 12.9101 26.713 12.8264C26.5767 12.7321 26.3569 12.685 26.0533 12.685H23.2102ZM23.2102 9.04097V10.3918H25.6919C25.9957 10.3918 26.1997 10.3447 26.3045 10.2504C26.4197 10.1562 26.4774 9.97816 26.4774 9.71639C26.4774 9.43364 26.4094 9.25041 26.2731 9.16662C26.1475 9.08286 25.9327 9.04097 25.6291 9.04097H23.2102ZM34.3675 17.0673C33.4985 17.0673 32.755 16.905 32.1372 16.5804C31.53 16.2453 31.0639 15.7741 30.7393 15.1667C30.4253 14.5489 30.268 13.8107 30.268 12.952C30.268 12.062 30.4305 11.2976 30.7551 10.6588C31.0797 10.02 31.5562 9.53313 32.1844 9.19805C32.8126 8.8525 33.5719 8.67971 34.462 8.67971C35.331 8.67971 36.0535 8.83678 36.6295 9.15092C37.2158 9.46506 37.6504 9.89964 37.9333 10.4546C38.2262 10.9991 38.3728 11.6326 38.3728 12.3552C38.3728 12.5751 38.3573 12.795 38.3259 13.0149C38.2945 13.2348 38.2683 13.4128 38.2472 13.5489H31.5248V11.9468H35.6871L35.5615 12.0253C35.5719 11.8368 35.5405 11.6693 35.467 11.5227C35.4042 11.3656 35.2786 11.24 35.0902 11.1457C34.9122 11.0515 34.6504 11.0044 34.3047 11.0044C33.8231 11.0044 33.4881 11.0934 33.2995 11.2714C33.1111 11.4389 33.0169 11.7112 33.0169 12.0881V13.2033C33.0169 13.5908 33.0483 13.8892 33.1111 14.0987C33.1739 14.2976 33.3049 14.4337 33.5037 14.507C33.7027 14.5803 34.0063 14.617 34.4148 14.617C34.7708 14.617 35.0168 14.5803 35.153 14.507C35.289 14.4233 35.3572 14.2924 35.3572 14.1144V14.083H38.2786V14.2714C38.2786 14.8159 38.1165 15.2976 37.7918 15.7165C37.4776 16.1353 37.0274 16.4652 36.4409 16.706C35.8651 16.9469 35.174 17.0673 34.3675 17.0673ZM41.9675 16.9102H39.0303V8.83678H41.7791V11.13L41.9675 11.2086V16.9102ZM41.9675 11.8054H41.3706V10.0619H41.9205C42.1507 9.66402 42.4545 9.33418 42.8313 9.0724C43.2188 8.81059 43.6796 8.67971 44.2137 8.67971C44.7373 8.67971 45.1507 8.78444 45.4546 8.99385C45.7582 9.20329 45.978 9.50171 46.1142 9.88916C46.2504 10.2766 46.3184 10.7373 46.3184 11.2714V12.7321H43.3654V11.9311C43.3654 11.6274 43.3236 11.4232 43.2398 11.3185C43.156 11.2138 42.9779 11.1614 42.7057 11.1614C42.4649 11.1614 42.2817 11.1981 42.1561 11.2714C42.0303 11.3342 41.9675 11.5122 41.9675 11.8054ZM49.7751 16.9102H46.8379V6.38647H49.7751V16.9102ZM53.6558 8.11427H50.7186V6.38647H53.6558V8.11427ZM53.6716 16.9102H50.7186V8.83678H53.6716V16.9102ZM63.018 16.9102H60.065V12.3552C60.065 11.9258 59.9864 11.6274 59.8294 11.4599C59.6828 11.2923 59.3477 11.2086 58.8241 11.2086C58.4995 11.2086 58.2431 11.24 58.0544 11.3028C57.8764 11.3656 57.7456 11.4756 57.6618 11.6326C57.5886 11.7897 57.5518 12.0148 57.5518 12.308H57.0806V10.0619H57.5048C57.6514 9.75827 57.8556 9.50695 58.1172 9.30799C58.3791 9.09858 58.6827 8.94151 59.0283 8.83678C59.374 8.73207 59.7456 8.67971 60.1436 8.67971C60.845 8.67971 61.4053 8.82108 61.8241 9.1038C62.2429 9.37606 62.5468 9.74778 62.7352 10.219C62.9236 10.6797 63.018 11.1876 63.018 11.7426V16.9102ZM57.5518 16.9102H54.6146V8.83678H57.3634V11.0515L57.5518 11.13V16.9102ZM67.413 16.9102H63.8947V13.6589H67.413V16.9102Z" fill="white"/>
<path d="M14.4721 4.05383H1.3829C0.659999 4.05383 0.0739746 4.63986 0.0739746 5.36275V18.452C0.0739746 19.1749 0.659999 19.7609 1.3829 19.7609H14.4721C15.195 19.7609 15.781 19.1749 15.781 18.452V5.36275C15.781 4.63986 15.195 4.05383 14.4721 4.05383Z" fill="white"/>
<path d="M12.5087 2.74475H3.34623C2.98478 2.74475 2.69177 2.45174 2.69177 2.09029V1.43583C2.69177 1.07438 2.98478 0.781369 3.34623 0.781369H12.5087C12.8701 0.781369 13.1631 1.07438 13.1631 1.43583V2.09029C13.1631 2.45174 12.8701 2.74475 12.5087 2.74475Z" fill="white"/>
<path d="M12.5087 23.0331H3.34623C2.98478 23.0331 2.69177 22.7401 2.69177 22.3787V21.7242C2.69177 21.3628 2.98478 21.0698 3.34623 21.0698H12.5087C12.8701 21.0698 13.1631 21.3628 13.1631 21.7242V22.3787C13.1631 22.7401 12.8701 23.0331 12.5087 23.0331Z" fill="white"/>
<path fill-rule="evenodd" clip-rule="evenodd" d="M13.2026 9.98393C13.4582 10.2395 13.4582 10.6539 13.2026 10.9095L8.06279 16.0493C7.80721 16.3049 7.39281 16.3049 7.13724 16.0493L3.30632 12.2184C3.05072 11.9628 3.05072 11.5484 3.30632 11.2929L4.69463 9.90455C4.95022 9.64895 5.3646 9.64895 5.6202 9.90455L7.6 11.8844L10.8887 8.59563C11.1443 8.34003 11.5587 8.34003 11.8143 8.59563L13.2026 9.98393Z" fill="white"/>
</g>
<defs>
<clipPath id="clip0_158_47">
<rect width="68.2384" height="22.2517" fill="white" transform="translate(0.0739746 0.781433)"/>
</clipPath>
</defs>
</svg>
