<svg width="65" height="28" viewBox="0 0 65 28" fill="none" xmlns="http://www.w3.org/2000/svg">
<path d="M43.8833 9.87219V8.07696L39.1707 5.99319L43.8833 4.00558V2.22638L37.3114 5.30394V6.74654L43.8833 9.87219Z" fill="white"/>
<path d="M3.9748 19.1316C4.33813 19.7621 5.0327 20.0774 6.05857 20.0774C7.08441 20.0774 7.77366 19.7675 8.12629 19.1477C8.48963 18.5279 8.67128 17.4913 8.67128 16.038C8.67128 14.5741 8.48428 13.5108 8.11028 12.8483C7.74695 12.1858 7.06304 11.8545 6.05857 11.8545C5.05407 11.8545 4.36485 12.1858 3.99082 12.8483C3.61682 13.5108 3.42982 14.5687 3.42982 16.022C3.42982 17.4646 3.61148 18.5012 3.9748 19.1316ZM9.52081 20.2857C8.86897 21.1833 7.71488 21.6322 6.05857 21.6322C4.40223 21.6322 3.24281 21.1833 2.58028 20.2857C1.91775 19.3774 1.58649 17.9562 1.58649 16.022C1.58649 14.0879 1.91775 12.6506 2.58028 11.7102C3.2535 10.7699 4.41293 10.2997 6.05857 10.2997C7.70422 10.2997 8.85828 10.7699 9.52081 11.7102C10.1833 12.6399 10.5146 14.0772 10.5146 16.022C10.5146 17.9669 10.1833 19.3881 9.52081 20.2857ZM13.3619 21.4558H11.6147V13.4414H13.3458V13.9383C14.1259 13.4895 14.8632 13.2651 15.5578 13.2651C16.6264 13.2651 17.3531 13.5696 17.7378 14.1787C18.1331 14.7771 18.3308 15.7709 18.3308 17.1601V21.4558H16.5997V17.2082C16.5997 16.3426 16.5035 15.7282 16.3112 15.3648C16.1295 15.0015 15.7502 14.8199 15.1731 14.8199C14.6281 14.8199 14.1045 14.9267 13.6023 15.1404L13.3619 15.2366V21.4558ZM20.1305 22.7542H26.9909V24.2449H20.1305V22.7542ZM29.0648 21.4558V10.476H35.9893V12.0308H30.844V15.1404H35.0277V16.6792H30.844V19.885H35.9893V21.4558H29.0648ZM36.1213 13.4414H37.9485L39.4875 19.9652H40.0004L41.6032 13.4414H43.3824L41.2985 21.4558H38.189L36.1213 13.4414ZM49.5661 20.0132L50.0148 19.9652L50.0469 21.2635C48.8286 21.5093 47.7493 21.6322 46.8091 21.6322C45.6229 21.6322 44.768 21.3062 44.2444 20.6544C43.7315 20.0025 43.475 18.9607 43.475 17.5288C43.475 14.6863 44.6344 13.2651 46.9534 13.2651C49.1972 13.2651 50.3193 14.4886 50.3193 16.9357L50.2071 18.1859H45.2381C45.2487 18.8485 45.393 19.3347 45.6709 19.6446C45.9487 19.9545 46.4671 20.1094 47.2257 20.1094C47.9844 20.1094 48.7647 20.0774 49.5661 20.0132ZM48.6042 16.8395C48.6042 16.0487 48.4762 15.4984 48.2194 15.1885C47.9737 14.8679 47.5516 14.7077 46.9534 14.7077C46.3549 14.7077 45.9166 14.8733 45.6388 15.2046C45.3716 15.5358 45.2329 16.0808 45.2222 16.8395H48.6042ZM52.9833 21.4558H51.2362V13.4414H52.9671V13.9383C53.7472 13.4895 54.4847 13.2651 55.1792 13.2651C56.2477 13.2651 56.9746 13.5696 57.3591 14.1787C57.7546 14.7771 57.9524 15.7709 57.9524 17.1601V21.4558H56.2211V17.2082C56.2211 16.3426 56.1249 15.7282 55.9326 15.3648C55.751 15.0015 55.3714 14.8199 54.7947 14.8199C54.2497 14.8199 53.7261 14.9267 53.2236 15.1404L52.9833 15.2366V21.4558ZM63.5348 14.9321H61.3228V18.4584C61.3228 19.1103 61.3708 19.543 61.4671 19.7568C61.5634 19.9705 61.8091 20.0774 62.2043 20.0774L63.5186 20.0293L63.599 21.4238C62.8829 21.5627 62.3379 21.6322 61.9641 21.6322C61.0557 21.6322 60.4306 21.4238 60.0886 21.007C59.7573 20.5903 59.5916 19.8049 59.5916 18.6508V14.9321H58.5658V13.4414H59.5916V11.1172H61.3228V13.4414H63.5348V14.9321Z" fill="white"/>
<path d="M46.8491 11.8454L51.4333 0.561014L49.8946 0L45.3263 11.3004L46.8491 11.8454Z" fill="white"/>
<path d="M52.4501 9.87219L59.022 6.74654V5.30394L52.4501 2.22638V4.00558L57.1624 5.99319L52.4501 8.07696V9.87219Z" fill="white"/>
</svg>
