<svg width="93" height="24" viewBox="0 0 93 24" fill="none" xmlns="http://www.w3.org/2000/svg">
<g clip-path="url(#clip0_158_35)">
<path opacity="0.4" d="M3.92013 11.64V23.0332H0.842163V14.1003L3.92013 11.64Z" fill="white"/>
<path d="M3.92017 11.64V23.0332H6.99814V13.5462L3.92017 11.64Z" fill="white"/>
<path opacity="0.5" d="M9.98506 6.98627V23.033H5.8811V10.3827L9.98506 6.98627Z" fill="white"/>
<path d="M9.98547 6.98627V23.033H14.0894V9.5279L9.98547 6.98627Z" fill="white"/>
<path opacity="0.6" d="M17.5654 0.781555V23.0332H12.0371V5.86321L17.5654 0.781555Z" fill="white"/>
<path d="M17.5657 0.781555V23.0332H23.094V5.86321L17.5657 0.781555Z" fill="white"/>
<mask id="mask0_158_35" style="mask-type:luminance" maskUnits="userSpaceOnUse" x="29" y="0" width="64" height="24">
<path d="M92.074 0.781555H29.7694V23.0332H92.074V0.781555Z" fill="white"/>
</mask>
<g mask="url(#mask0_158_35)">
<path d="M29.9542 17.0921V7.22304H31.4353V17.0921H29.9542ZM35.1704 17.0921H33.7463V9.44465H35.028V10.2421L35.8255 9.44465H38.6594L39.2718 10.0713L39.8842 9.44465H43.1311L44.128 10.4273V17.0921H42.7039V10.7833H39.6848V17.0921H38.2607V10.7833H35.8539L35.1704 11.3957V17.0921ZM47.6592 19.983H46.235V9.44465H47.5167V10.2421L48.3142 9.44465H51.2337L52.2305 10.4273V16.0952L51.2337 17.0921H47.6592V19.983ZM50.8064 10.7833H48.3427L47.6592 11.3957V15.7819H50.8064V10.7833ZM55.753 17.0921H54.3289V9.44465H55.6106V10.413L56.5932 9.44465H58.3591V10.8118H56.5647L55.753 11.5808V17.0921ZM60.9834 8.06326H59.5024V6.72461H60.9834V8.06326ZM60.955 17.0921H59.5309V9.44465H60.955V17.0921ZM64.5148 17.0921H63.0907V9.44465H64.3724V10.2421L65.1699 9.44465H68.2175L69.2143 10.4273V17.0921H67.776V10.7833H65.1984L64.5148 11.3957V17.0921ZM75.1261 17.0921H72.577L71.5801 16.0952V10.6267H70.5263V9.44465H71.5801V7.89237H73.0042V9.44465H74.9695V10.6267H73.0042V15.7534H75.1261V17.0921ZM78.0202 8.06326H76.5391V6.72461H78.0202V8.06326ZM77.9917 17.0921H76.5676V9.44465H77.9917V17.0921ZM82.1919 17.0921H80.7678V10.6267H79.5289V9.44465H80.7678V7.57907L81.7647 6.59644H84.1287V7.77844H82.1919V9.44465H83.9863V10.6267H82.1919V17.0921ZM85.317 17.5763H86.6983V18.7441H89.9026V16.6791H86.1999L85.2173 15.6965V9.44465H86.6414V15.4259H89.9026V9.44465H91.3267V19.0004L90.3156 19.983H86.3281L85.317 19.0004V17.5763Z" fill="white"/>
</g>
</g>
<defs>
<clipPath id="clip0_158_35">
<rect width="91.2318" height="22.2517" fill="white" transform="translate(0.842285 0.781433)"/>
</clipPath>
</defs>
</svg>
