<svg width="80" height="18" viewBox="0 0 80 18" fill="none" xmlns="http://www.w3.org/2000/svg">
<g clip-path="url(#clip0_158_29)">
<path d="M6.34301 16.8748C4.71474 16.8209 3.4843 16.4531 2.65166 15.7711C1.81903 15.0713 1.21769 14.2907 0.847629 13.4293C0.477571 12.5501 0.292542 11.6618 0.292542 10.7645C0.292542 9.8314 0.46832 8.93416 0.819876 8.0728C1.18993 7.19351 1.79128 6.4129 2.62392 5.731C3.47505 5.03115 4.54823 4.67225 5.84342 4.6543H14.8359C16.1311 4.67225 17.195 5.03115 18.0276 5.731C18.8788 6.4129 19.4801 7.19351 19.8317 8.0728C20.2017 8.93416 20.3867 9.8314 20.3867 10.7645C20.3867 11.6618 20.2017 12.5501 19.8317 13.4293C19.4616 14.2907 18.8603 15.0713 18.0276 15.7711C17.195 16.4531 15.9646 16.8209 14.3363 16.8748H6.34301ZM5.7324 8.26122C5.38085 8.26122 5.07555 8.40478 4.81651 8.6919C4.55748 8.96107 4.36319 9.28409 4.23368 9.66092C4.12264 10.0198 4.06715 10.3787 4.06715 10.7376C4.06715 11.1145 4.12264 11.4913 4.23368 11.8681C4.36319 12.227 4.55748 12.5501 4.81651 12.8372C5.07555 13.1063 5.38085 13.2499 5.7324 13.2678H14.9469C15.2984 13.2499 15.6037 13.1063 15.8628 12.8372C16.1218 12.5501 16.3069 12.227 16.4179 11.8681C16.5474 11.4913 16.6121 11.1145 16.6121 10.7376C16.6121 10.3787 16.5474 10.0198 16.4179 9.66092C16.3069 9.28409 16.1218 8.96107 15.8628 8.6919C15.6037 8.40478 15.2984 8.26122 14.9469 8.26122H5.7324Z" fill="white"/>
<path d="M41.2024 6.21575C41.2024 6.66436 41.0174 7.04121 40.6472 7.34626C40.2958 7.63338 39.861 7.77694 39.3429 7.77694H27.6028C27.3623 7.77694 27.1679 7.82182 27.0199 7.91153C26.8718 8.00126 26.7609 8.09996 26.6869 8.20762C26.6127 8.29735 26.5758 8.37811 26.5758 8.44989C26.5758 8.5396 26.6127 8.6383 26.6869 8.74596C26.7609 8.83569 26.8718 8.92542 27.0199 9.01513C27.1679 9.08691 27.3623 9.13179 27.6028 9.14972H36.6785C37.8441 9.16767 38.8063 9.39198 39.5649 9.82267C40.3235 10.2354 40.8601 10.7289 41.1746 11.3031C41.5076 11.8594 41.6741 12.4247 41.6741 12.9989C41.6741 13.5552 41.5076 14.1205 41.1746 14.6947C40.8416 15.251 40.2958 15.7445 39.5371 16.1751C38.797 16.5879 37.8441 16.7943 36.6785 16.7943C36.4749 16.8122 36.3269 16.8212 36.2344 16.8212H25.4657C24.9476 16.8212 24.5035 16.6776 24.1334 16.3905C23.782 16.0854 23.6062 15.7176 23.6062 15.2869C23.6062 14.8383 23.791 14.4614 24.1612 14.1563C24.5127 13.8692 24.9476 13.7257 25.4657 13.7257H36.9004C37.178 13.7436 37.4 13.7077 37.5665 13.618C37.7516 13.5283 37.8904 13.4296 37.983 13.3219C38.0755 13.2142 38.1217 13.1066 38.1217 12.9989C38.1217 12.9451 38.0755 12.8553 37.983 12.7297C37.8904 12.5862 37.7516 12.4785 37.5665 12.4067C37.4 12.317 37.178 12.2632 36.9004 12.2452H27.7971C26.7238 12.2273 25.8358 12.0119 25.1326 11.5992C24.4295 11.1685 23.9299 10.6751 23.6338 10.1188C23.3379 9.56247 23.1897 9.00618 23.1897 8.44989C23.1897 7.89359 23.3379 7.34626 23.6338 6.80792C23.9485 6.25163 24.448 5.77609 25.1326 5.38131C25.8358 4.96858 26.7238 4.74426 27.7971 4.70836C27.982 4.69043 28.1209 4.68146 28.2134 4.68146H39.3429C39.861 4.68146 40.2958 4.83399 40.6472 5.13904C41.0174 5.42616 41.2024 5.78507 41.2024 6.21575Z" fill="white"/>
<path d="M46.67 0.562988C47.1696 0.580933 47.5951 0.760383 47.9467 1.10134C48.2983 1.42434 48.4833 1.8281 48.5019 2.31261V15.5021C48.3908 16.5788 47.7802 17.162 46.67 17.2517C46.1519 17.2517 45.6985 17.0902 45.3101 16.7672C44.9399 16.4263 44.7549 16.0046 44.7549 15.5021V2.31261C44.7734 1.81016 44.9678 1.39743 45.3379 1.07442C45.7078 0.733465 46.1519 0.562988 46.67 0.562988Z" fill="white"/>
<path d="M57.7717 16.8748C56.1435 16.8209 54.9131 16.4531 54.0805 15.7711C53.2478 15.0713 52.6464 14.2907 52.2765 13.4293C51.9064 12.5501 51.7213 11.6618 51.7213 10.7645C51.7213 9.8314 51.8971 8.93416 52.2487 8.0728C52.6188 7.19351 53.2201 6.4129 54.0527 5.731C54.9039 5.03115 55.9769 4.67225 57.2722 4.6543H66.2646C67.5599 4.67225 68.6239 5.03115 69.4564 5.731C70.3076 6.4129 70.9089 7.19351 71.2605 8.0728C71.6304 8.93416 71.8155 9.8314 71.8155 10.7645C71.8155 11.6618 71.6304 12.5501 71.2605 13.4293C70.8904 14.2907 70.289 15.0713 69.4564 15.7711C68.6239 16.4531 67.3933 16.8209 65.7651 16.8748H57.7717ZM57.1613 8.26122C56.8097 8.26122 56.5043 8.40478 56.2453 8.6919C55.9862 8.96107 55.7921 9.28409 55.6625 9.66092C55.5514 10.0198 55.4959 10.3787 55.4959 10.7376C55.4959 11.1145 55.5514 11.4913 55.6625 11.8681C55.7921 12.227 55.9862 12.5501 56.2453 12.8372C56.5043 13.1063 56.8097 13.2499 57.1613 13.2678H66.3757C66.7273 13.2499 67.0325 13.1063 67.2915 12.8372C67.5506 12.5501 67.7356 12.227 67.8467 11.8681C67.9761 11.4913 68.0409 11.1145 68.0409 10.7376C68.0409 10.3787 67.9761 10.0198 67.8467 9.66092C67.7356 9.28409 67.5506 8.96107 67.2915 8.6919C67.0325 8.40478 66.7273 8.26122 66.3757 8.26122H57.1613Z" fill="white"/>
<path d="M77.7759 17.252C78.8732 17.252 79.7627 16.3625 79.7627 15.2652C79.7627 14.1679 78.8732 13.2784 77.7759 13.2784C76.6787 13.2784 75.7892 14.1679 75.7892 15.2652C75.7892 16.3625 76.6787 17.252 77.7759 17.252Z" fill="white"/>
</g>
<defs>
<clipPath id="clip0_158_29">
<rect width="79.5497" height="16.6887" fill="white" transform="translate(0.292542 0.562927)"/>
</clipPath>
</defs>
</svg>
