<svg width="93" height="24" viewBox="0 0 93 24" fill="none" xmlns="http://www.w3.org/2000/svg">
<g clip-path="url(#clip0_158_25)">
<path d="M46.9518 4.24315C45.3 5.20912 43.7476 6.35827 42.2941 7.6906C40.8405 8.98965 39.4199 10.322 38.0326 11.6876C37.2397 12.4537 36.4634 13.2365 35.7036 14.0359C34.9438 14.8353 34.1841 15.6347 33.4243 16.4341C33.0277 16.9005 32.5983 17.3668 32.1359 17.8331C31.7065 18.2661 31.277 18.7324 30.8476 19.2321C31.5413 19.0655 32.2185 18.8657 32.8791 18.6325C33.5729 18.3993 34.2006 18.1995 34.7621 18.0329C35.2576 17.933 35.7862 17.7998 36.3477 17.6332C36.9094 17.4667 37.4709 17.3335 38.0326 17.2335C38.5941 17.1003 39.1556 17.0337 39.7173 17.0337C40.3119 17.0004 40.8568 17.0836 41.3526 17.2835C41.9801 17.5167 42.3601 17.9164 42.4921 18.4826C42.5912 18.849 42.5581 19.1988 42.3929 19.5318C42.9547 19.3653 43.4996 19.1821 44.0282 18.9822C44.5899 18.7824 45.1183 18.5992 45.614 18.4327C46.5718 18.1329 47.5299 17.8331 48.4879 17.5333C49.446 17.2002 50.4204 16.9338 51.4115 16.7339C51.6758 16.6673 51.9896 16.634 52.353 16.634C52.7494 16.6007 53.0962 16.634 53.3934 16.7339C53.6909 16.8338 53.9055 17.017 54.0377 17.2835C54.2029 17.5167 54.2195 17.8664 54.0872 18.3327C53.988 18.6325 53.79 18.8823 53.4926 19.0822C53.1954 19.2487 52.8485 19.3819 52.4519 19.4819C52.0556 19.5818 51.6593 19.6651 51.2627 19.7317C50.8664 19.765 50.5526 19.815 50.3212 19.8816C49.1982 20.2147 48.0916 20.5644 47.0013 20.9308C45.9112 21.2639 44.8211 21.597 43.731 21.93C43.1693 22.0966 42.5581 22.2632 41.8975 22.4297C41.2369 22.6295 40.6091 22.6628 40.0145 22.5296C39.7833 22.4963 39.5356 22.3964 39.2713 22.2298C38.7098 21.7968 38.4455 21.3971 38.4784 21.0307C38.5115 20.6643 38.6601 20.2979 38.9244 19.9315H38.3298C37.1406 20.1314 35.9513 20.3812 34.7621 20.681C33.8041 20.9475 32.8297 21.2472 31.8385 21.5803C30.8804 21.9134 29.8895 22.1299 28.8654 22.2298C28.502 22.2631 28.1388 22.1965 27.7753 22.03C27.4119 21.8967 27.1476 21.6136 26.9824 21.1806C26.8504 20.8142 26.8504 20.4645 26.9824 20.1314C27.1147 19.765 27.2962 19.4152 27.5276 19.0822C26.5695 19.6484 25.6612 20.1314 24.8023 20.5311C23.9763 20.8975 23.3487 21.1639 22.9192 21.3305C22.0603 21.6969 21.1354 22.08 20.1444 22.4796C19.1533 22.8794 18.1623 23.0626 17.1712 23.0292C16.0811 22.9626 15.4204 22.6628 15.1892 22.1299C14.9579 21.597 15.0075 20.9308 15.3378 20.1314C15.6351 19.2987 16.1141 18.416 16.7748 17.4834C17.4355 16.5174 18.1292 15.6014 18.856 14.7354C19.6158 13.8694 20.3095 13.1199 20.9372 12.487C21.5648 11.8209 21.9778 11.3879 22.176 11.188L22.8697 10.4885C21.9117 10.4885 20.9702 10.4885 20.0452 10.4885C19.1203 10.4885 18.1788 10.5052 17.2208 10.5385C15.3048 10.6051 13.4053 10.705 11.5224 10.8383C9.60634 10.9382 7.69035 11.0881 5.77436 11.2879C5.08063 11.3879 4.40343 11.4878 3.74273 11.5877C3.049 11.6543 2.35528 11.7709 1.66156 11.9374C1.49639 11.9708 1.3147 12.0207 1.11649 12.0874C0.918285 12.154 0.736595 12.154 0.571424 12.0874C0.208044 11.9541 0.0428717 11.7209 0.0759068 11.3879C0.0759068 11.0215 0.241079 10.7883 0.571424 10.6884C4.53556 9.65581 8.61533 9.00629 12.8107 8.73984C17.0061 8.44006 21.1519 8.25685 25.2483 8.19022C26.107 7.39082 26.9659 6.60808 27.8248 5.84198C28.6837 5.07588 29.5592 4.30978 30.451 3.54368C30.8804 3.14397 31.3762 2.64434 31.9376 2.04478C32.5322 1.41192 33.1269 1.01221 33.7215 0.845672C34.0518 0.745745 34.3327 0.762399 34.5638 0.895634C34.8281 0.99556 35.0264 1.17876 35.1584 1.44523C35.2907 1.67839 35.3402 1.94486 35.3073 2.24464C35.2741 2.54441 35.1419 2.81088 34.9107 3.04404C33.8866 3.91007 32.8791 4.7761 31.8882 5.64211C30.897 6.47484 29.9226 7.34085 28.9646 8.24019C29.46 8.24019 29.9226 8.30682 30.3521 8.44006C30.7484 8.53997 31.0953 8.70651 31.3925 8.93968C31.723 9.17283 31.9542 9.52258 32.0862 9.9889C32.1854 10.3886 32.1359 10.7384 31.9376 11.0381C31.7393 11.3046 31.4916 11.5045 31.1944 11.6377C30.897 11.7376 30.5833 11.7543 30.2529 11.6876C29.9555 11.5877 29.7243 11.3712 29.5592 11.0381C29.1297 10.8716 28.6343 10.755 28.0725 10.6884C27.511 10.5885 26.9824 10.5385 26.487 10.5385L25.9915 10.9882C24.637 12.2872 23.2 13.6862 21.6804 15.1851C20.1939 16.6839 19.0212 18.2994 18.1623 20.0315C19.3185 19.7983 20.5077 19.4652 21.73 19.0322C22.9523 18.5992 24.158 18.1162 25.3472 17.5833C26.5364 17.0503 27.7093 16.4841 28.8654 15.8845C30.0218 15.2517 31.0953 14.6022 32.0862 13.936C33.3417 12.6369 34.6135 11.3712 35.9019 10.1388C37.2231 8.87305 38.561 7.65729 39.9156 6.49148C40.7414 5.75871 41.5837 5.04258 42.4426 4.34308C43.3016 3.64359 44.177 2.99408 45.0688 2.39452C45.4323 2.12806 45.8286 1.96151 46.2581 1.8949C46.7206 1.79497 47.1004 1.97817 47.3978 2.44449C47.563 2.74427 47.5959 3.07735 47.497 3.44374C47.4307 3.77683 47.249 4.0433 46.9518 4.24315Z" fill="white"/>
<path d="M75.9351 19.2822C75.1753 19.3488 74.4155 19.4821 73.6558 19.6819C72.9289 19.8484 72.1857 20.015 71.4259 20.1815C69.4438 20.6479 67.4782 21.0975 65.5292 21.5305C63.5802 21.9302 61.5981 22.23 59.5831 22.4299C59.0545 22.4965 58.4928 22.5465 57.8981 22.5798C57.3367 22.6131 56.7586 22.5964 56.164 22.5298C55.6023 22.4632 55.0573 22.3299 54.5287 22.1301C54.0001 21.9636 53.5212 21.6971 53.0918 21.3307C52.7283 21.0309 52.4475 20.6812 52.2494 20.2815C52.018 19.8818 51.886 19.4654 51.8529 19.0324C51.7868 18.5994 51.82 18.183 51.952 17.7833C52.0843 17.3503 52.332 16.9672 52.6952 16.6342C52.9266 16.401 53.2898 16.2178 53.7855 16.0846C54.3139 15.918 54.8922 15.8015 55.5197 15.7348C56.1474 15.6682 56.7752 15.6516 57.4027 15.6849C58.0304 15.7182 58.5753 15.8348 59.0379 16.0346C59.5005 16.2345 59.8143 16.5176 59.9794 16.884C60.1777 17.2171 60.1611 17.6501 59.93 18.183C59.7317 18.5827 59.4342 18.8658 59.0379 19.0324C58.6416 19.1989 58.1956 19.3155 57.7001 19.3821C57.2044 19.4154 56.6923 19.4154 56.164 19.3821C55.6354 19.3155 55.1728 19.2489 54.7765 19.1823C54.9085 19.3155 55.1728 19.4321 55.5694 19.532C55.9657 19.5986 56.3786 19.6486 56.8081 19.6819C57.2706 19.7152 57.6835 19.7319 58.047 19.7319C58.4433 19.7319 58.691 19.7319 58.7902 19.7319C60.4089 19.5986 62.011 19.3655 63.5968 19.0324C65.2155 18.6993 66.8176 18.3496 68.4032 17.9832C69.5595 17.7167 70.699 17.4502 71.8222 17.1838C72.9783 16.884 74.1347 16.6675 75.2908 16.5342C75.7865 16.5009 76.1994 16.6175 76.5297 16.884C76.86 17.1505 77.0746 17.4669 77.1738 17.8333C77.2729 18.1664 77.2235 18.4828 77.0252 18.7826C76.86 19.0823 76.4966 19.2489 75.9351 19.2822Z" fill="white"/>
<path d="M90.8907 19.2822C89.206 19.3155 87.4882 19.3655 85.7375 19.4321C83.9865 19.4654 82.2687 19.2656 80.584 18.8325C80.452 18.8325 80.3197 18.7992 80.1877 18.7326C79.9894 19.2989 79.6922 19.8485 79.2956 20.3814C78.9324 20.881 78.5193 21.314 78.057 21.6804C77.5944 22.0468 77.0823 22.3133 76.5208 22.4798C75.9922 22.6464 75.4636 22.663 74.935 22.5298C74.4396 22.3966 74.0761 22.1468 73.845 21.7804C73.5807 21.414 73.4321 20.9976 73.3989 20.5313C73.3661 20.065 73.4321 19.5986 73.5972 19.1323C73.7295 18.666 73.9275 18.2496 74.1918 17.8833C74.6213 17.3503 75.1665 16.9506 75.8271 16.6841C76.4877 16.4177 77.1483 16.3844 77.8092 16.5842C77.8752 16.1179 78.1395 15.7515 78.6019 15.485C79.0645 15.2185 79.5599 15.2519 80.0885 15.585C80.584 15.8847 81.1126 16.1179 81.6741 16.2844C82.2687 16.4177 82.8799 16.5009 83.5076 16.5342C84.1354 16.5675 84.7463 16.5842 85.3409 16.5842C85.9687 16.5509 86.5633 16.5342 87.1248 16.5342C87.7856 16.5342 88.4957 16.5009 89.2555 16.4343C90.0155 16.3344 90.709 16.3844 91.3367 16.5842C91.7002 16.7174 91.9479 16.934 92.0799 17.2337C92.2451 17.5335 92.2948 17.8333 92.2288 18.1331C92.1957 18.4328 92.0636 18.6993 91.8322 18.9325C91.601 19.1656 91.2873 19.2822 90.8907 19.2822ZM76.0748 19.9317C76.174 19.8318 76.3723 19.7818 76.6694 19.7818V19.3322C76.6034 19.3988 76.5043 19.4821 76.3723 19.582C76.24 19.6486 76.1408 19.7652 76.0748 19.9317Z" fill="white"/>
</g>
<defs>
<clipPath id="clip0_158_25">
<rect width="92.2208" height="22.2517" fill="white" transform="translate(0.0717773 0.781433)"/>
</clipPath>
</defs>
</svg>
