<svg width="60" height="60" viewBox="0 0 60 60" fill="none" xmlns="http://www.w3.org/2000/svg">
<path fill-rule="evenodd" clip-rule="evenodd" d="M30 5C43.8071 5 55 16.1929 55 30C55 43.8071 43.8071 55 30 55C16.1929 55 5 43.8071 5 30C5 16.1929 16.1929 5 30 5ZM30.0016 8.84616L30 20.3846C24.6896 20.3846 20.3846 24.6896 20.3846 30C20.3846 35.3104 24.6896 39.6154 30 39.6154V51.1531L30.4855 51.1484C41.9442 50.8903 51.1538 41.5207 51.1538 30C51.1538 18.3176 41.6838 8.847 30.0016 8.84616ZM30 20.625C35.1777 20.625 39.375 24.8223 39.375 30C39.375 35.06 35.3663 39.1837 30.3514 39.3686L30 39.375V20.625Z" fill="#AF2D2E"/>
</svg>
