<svg width="60" height="60" viewBox="0 0 60 60" fill="none" xmlns="http://www.w3.org/2000/svg">
<path d="M14.1195 8.14733C13.7314 9.08411 13.7314 10.2717 13.7314 12.6465C13.7315 15.0209 13.7315 16.209 14.1194 17.1456C14.6367 18.3945 15.6291 19.3869 16.8781 19.9042C17.8148 20.2923 19.0023 20.2923 21.3772 20.2923C23.7509 20.2922 24.9399 20.2922 25.8763 19.9044C27.1253 19.387 28.1177 18.3945 28.6349 17.1457C29.023 16.2089 29.0229 15.0215 29.023 12.6465C29.023 10.2715 29.0212 9.08583 28.6333 8.14899C28.1158 6.90026 27.1234 5.90784 25.8746 5.39035C24.9378 5.00246 23.7522 5.00081 21.3772 5.00073C19.0022 5.00086 17.8148 5.00071 16.878 5.38882C15.6292 5.90606 14.6368 6.89848 14.1195 8.14733Z" fill="#334BC7"/>
<path d="M14.1189 25.3939C13.731 26.3307 13.731 27.5182 13.731 29.8931C13.731 32.2674 13.731 33.4556 14.1188 34.392C14.6362 35.6411 15.6287 36.6335 16.8775 37.1507C17.8143 37.5388 19.0019 37.5389 21.3768 37.5388C23.7504 37.5389 24.9393 37.5387 25.8757 37.1508C27.1247 36.6335 28.1171 35.6411 28.6344 34.3922C29.0225 33.4555 29.0224 32.268 29.0225 29.8931C29.0225 27.5182 29.0208 26.3324 28.6326 25.3956C28.1154 24.1468 27.123 23.1543 25.8739 22.6369C24.9373 22.249 23.7517 22.2474 21.3767 22.2473C19.0018 22.2473 17.8143 22.2473 16.8776 22.6353C15.6286 23.1527 14.6363 24.145 14.1189 25.3939Z" fill="#33BDC7"/>
<path d="M30.978 12.6456C30.978 15.02 30.978 16.208 31.3658 17.1447C31.8832 18.3937 32.8756 19.3862 34.1245 19.9034C35.0614 20.2914 36.2488 20.2912 38.6238 20.2914C40.9972 20.2914 42.1864 20.2912 43.1228 19.9034C44.3716 19.3862 45.364 18.3937 45.8815 17.1447C46.2695 16.2082 46.2695 15.0206 46.2695 12.6458C46.2696 10.2708 46.2678 9.08499 45.8797 8.14821C45.3624 6.89936 44.37 5.90694 43.121 5.38955C42.1844 5.00155 40.9988 4.99993 38.6237 5C36.2488 4.99995 35.0613 4.99998 34.1247 5.38791C32.8756 5.90534 31.8834 6.89757 31.366 8.14655C30.978 9.0832 30.978 10.2708 30.978 12.6456Z" fill="#33BDC7"/>
<path d="M31.366 25.3938C30.978 26.3307 30.978 27.5183 30.978 29.8932C30.9782 32.2675 30.978 33.4556 31.366 34.3922C31.8834 35.6412 32.8757 36.6334 34.1247 37.1509C35.0613 37.5387 36.2489 37.5388 38.6237 37.5387C40.9974 37.5388 42.1865 37.5388 43.1228 37.151C44.3719 36.6336 45.3643 35.6411 45.8815 34.3923C46.2697 33.4556 46.2695 32.2681 46.2695 29.893C46.2695 27.5182 46.2677 26.3324 45.8799 25.3956C45.3623 24.1468 44.3701 23.1545 43.1212 22.637C42.1845 22.2492 40.9987 22.2473 38.6239 22.2473C36.2489 22.2475 35.0614 22.2473 34.1245 22.6353C32.8759 23.1527 31.8835 24.1452 31.366 25.3938Z" fill="#334BC7"/>
<path d="M14.1185 42.8551C13.7305 43.7918 13.7305 44.9793 13.7305 47.3542C13.7305 49.7285 13.7306 50.9168 14.1183 51.8532C14.6357 53.1022 15.6282 54.0946 16.877 54.6119C17.8138 55 19.0014 55 21.3763 54.9999C23.75 55 24.9388 54.9999 25.8752 54.612C27.1242 54.0946 28.1166 53.1023 28.6339 51.8533C29.022 50.9166 29.0219 49.7291 29.022 47.3542C29.022 44.9793 29.0203 43.7935 28.6321 42.8567C28.115 41.6079 27.1225 40.6155 25.8735 40.098C24.9368 39.7101 23.7513 39.7085 21.3763 39.7085C19.0013 39.7085 17.8138 39.7085 16.8771 40.0965C15.6281 40.6138 14.6358 41.6062 14.1185 42.8551Z" fill="#334BC7"/>
</svg>
