<svg width="60" height="60" viewBox="0 0 60 60" fill="none" xmlns="http://www.w3.org/2000/svg">
<path d="M55 30H49.5L30 26.875L10.5 30H5C5 23.0937 7.8126 16.8437 12.3126 12.3124C16.8437 7.8124 23.0937 5 30 5C36.9063 5 43.1563 7.8124 47.6874 12.3124C52.1874 16.8437 55 23.0937 55 30Z" fill="#FF8DE4"/>
<path d="M55 45.625H39.375L30 42.5L20.625 45.625H5C5 39.7188 7.0624 34.2813 10.5 30L30 26.875L49.5 30C52.9376 34.2813 55 39.7188 55 45.625Z" fill="#FF4DB3"/>
<path d="M39.375 45.625C39.375 50.8124 35.1874 55 30 55C24.8126 55 20.625 50.8124 20.625 45.625L30 42.5L39.375 45.625Z" fill="#FF8DE4"/>
<path d="M39.375 45.625H20.625C20.625 40.4374 24.8126 36.25 30 36.25C35.1874 36.25 39.375 40.4374 39.375 45.625Z" fill="#FF0068"/>
<path d="M49.5 30H10.5C11.0625 29.2812 11.6562 28.5937 12.3126 27.9374C16.8437 23.4374 23.0937 20.625 30 20.625C36.9063 20.625 43.1563 23.4374 47.6874 27.9374C48.3437 28.5937 48.9375 29.2812 49.5 30Z" fill="#FF0068"/>
</svg>
