<svg width="60" height="60" viewBox="0 0 60 60" fill="none" xmlns="http://www.w3.org/2000/svg">
<path fill-rule="evenodd" clip-rule="evenodd" d="M30 5H5V55H30C43.8071 55 55 43.8071 55 30C55 16.1929 43.8071 5 30 5ZM32.3444 47.8765C31.7699 47.7073 31.1806 47.0233 31.0554 46.3688C30.9744 45.9422 31.0702 45.648 31.6815 44.464C34.1562 39.6836 35.2316 35.2856 35.2316 29.9536C35.2316 24.7981 34.2815 20.7825 31.9171 15.9727C31.409 14.9431 30.9965 13.9796 30.9965 13.8399C30.9965 13.3251 31.4237 12.5823 31.8877 12.2954C32.5211 11.8983 33.5891 11.9718 34.1047 12.4499C34.3036 12.6338 34.8118 13.4722 35.239 14.3106C36.933 17.6275 38.0894 21.2679 38.6638 25.0555C39.0174 27.4016 39.0911 31.8437 38.8038 33.9912C38.2808 37.9479 37.235 41.4854 35.5557 44.942C34.5392 47.0307 33.9058 47.8912 33.3755 47.8912C33.2724 47.8912 33.0956 47.9206 32.9925 47.95C32.8894 47.9794 32.5948 47.95 32.3444 47.8765ZM25.4578 44.2801C24.5739 44.0227 23.9331 42.9343 24.1909 42.1253C24.2498 41.9267 24.6697 41.0221 25.1189 40.1101C27.0118 36.249 27.8 32.1158 27.4169 28.0561C27.1002 24.7172 26.5036 22.6138 24.9937 19.5396C23.9847 17.473 23.9331 17.1568 24.5223 16.3184C25.0821 15.524 26.4815 15.399 27.2107 16.0683C27.7189 16.5317 29.3024 19.8338 29.9138 21.7019C31.9319 27.8796 31.6226 34.5207 29.0373 40.5881C27.7042 43.6991 26.7688 44.6626 25.4578 44.2801ZM17.2085 39.2276C17.3411 39.8086 17.8125 40.3896 18.3575 40.6323C18.6006 40.7426 19.013 40.8015 19.2708 40.7794C20.1179 40.6691 20.5377 40.2131 21.3847 38.4995C22.8577 35.5062 23.3881 33.2778 23.3955 30.0345C23.4028 26.8794 22.8357 24.4157 21.451 21.5768C20.5524 19.7308 20.0295 19.2234 19.0204 19.2234C18.4238 19.2234 18.2397 19.2896 17.8125 19.6941C16.9508 20.5104 16.9728 20.9223 17.9966 22.9889C20.3241 27.7031 20.302 32.3438 17.9156 37.1684C17.2675 38.4774 17.1275 38.8746 17.2085 39.2276ZM11.7287 37.2345C11.2941 37.058 10.8007 36.4697 10.6533 35.9548C10.4913 35.3812 10.6239 34.9252 11.2721 33.8588C12.1117 32.4835 12.3032 31.7481 12.3032 29.9536C12.3032 28.1591 12.1117 27.4163 11.2721 26.0483C10.9848 25.585 10.7049 25.0261 10.6386 24.8054C10.3661 23.9008 11.1247 22.7903 12.1412 22.5991C13.0029 22.4373 13.5921 22.8197 14.3876 24.0553C16.6782 27.6296 16.6782 32.3953 14.3876 35.9401C13.5774 37.183 12.6788 37.6243 11.7287 37.2345Z" fill="#005A44"/>
</svg>
