<svg width="60" height="60" viewBox="0 0 60 60" fill="none" xmlns="http://www.w3.org/2000/svg">
<path d="M31.6665 31.6665C44.5532 31.6665 54.9998 31.6665 54.9998 31.6665C54.9998 44.5531 44.5532 54.9998 31.6665 54.9998C31.6665 54.9998 31.6665 41.6665 31.6665 31.6665Z" fill="#EF898B"/>
<path d="M54.9998 28.3333C42.1132 28.3333 31.6665 28.3333 31.6665 28.3333C31.6665 15.4467 42.1132 5 54.9998 5C54.9998 5 54.9998 18.3333 54.9998 28.3333Z" fill="#EF898B"/>
<path d="M28.3333 31.6665C28.3333 44.5531 28.3333 54.9998 28.3333 54.9998C15.4467 54.9998 5 44.5531 5 31.6665C5 31.6665 18.3333 31.6665 28.3333 31.6665Z" fill="#EF898B"/>
<path d="M5 28.3333C5 15.4467 5 5 5 5C17.8867 5 28.3333 15.4467 28.3333 28.3333C28.3333 28.3333 15 28.3333 5 28.3333Z" fill="#EF898B"/>
</svg>
