<svg width="60" height="60" viewBox="0 0 60 60" fill="none" xmlns="http://www.w3.org/2000/svg">
<path d="M43.1579 50.4081C49.7219 50.2743 55 44.9054 55 38.305C55 35.095 53.7257 32.0165 51.4573 29.7467L31.3158 9.5918V22.1194C31.3158 24.2146 32.1475 26.2239 33.6282 27.7055L38.3464 32.4269L38.3593 32.4394L46.2706 40.3561C46.5276 40.6131 46.5276 41.03 46.2706 41.287C46.0138 41.5441 45.5971 41.5441 45.3403 41.287L42.6133 38.5582H17.3867L14.6597 41.287C14.4028 41.5441 13.9863 41.5441 13.7293 41.287C13.4724 41.03 13.4724 40.6131 13.7293 40.3561L21.6407 32.4394L21.6536 32.4269L26.3718 27.7055C27.8524 26.2239 28.6842 24.2146 28.6842 22.1194V9.5918L8.5426 29.7467C6.27431 32.0165 5 35.095 5 38.305C5 44.9054 10.2781 50.2743 16.8421 50.4081H43.1579Z" fill="#D88526"/>
</svg>
