<svg width="60" height="60" viewBox="0 0 60 60" fill="none" xmlns="http://www.w3.org/2000/svg">
<path fill-rule="evenodd" clip-rule="evenodd" d="M28.6851 5.02979C15.4888 5.71597 5 16.6333 5 30.0003C5 43.3674 15.4888 54.2847 28.6851 54.9708C25.1349 48.1783 23.0034 39.4809 23.0034 30.0002C23.0034 20.5197 25.1349 11.8224 28.6851 5.02979Z" fill="#8284F5"/>
<path fill-rule="evenodd" clip-rule="evenodd" d="M28.6812 5.02982C29.1197 5.00694 29.5612 4.99536 30.0053 4.99536C43.5805 4.99536 54.6291 15.8134 55.0004 29.2989C54.562 29.3218 54.1204 29.3333 53.6762 29.3333C40.101 29.3333 29.0525 18.5153 28.6812 5.02982Z" fill="#8284F5"/>
<path fill-rule="evenodd" clip-rule="evenodd" d="M28.6812 54.9705C29.1197 54.9933 29.5612 55.005 30.0053 55.005C43.5805 55.005 54.6291 44.187 55.0004 30.7014C54.5619 30.6786 54.1204 30.667 53.6762 30.667C40.101 30.667 29.0525 41.485 28.6812 54.9705Z" fill="#F5E482"/>
</svg>
