<svg width="135" height="40" viewBox="0 0 135 40" fill="none" xmlns="http://www.w3.org/2000/svg">
<path d="M133.706 0V40M130.366 0V40M128.554 0V40M124.86 0V40M124.67 0V40M120.068 0V40M122.316 0V40M119.483 0V40M116.966 0V40M114.921 0V40M113.295 0V40M111.024 0V40M108.76 0V40M105.48 0V40M104.632 0V40M102.612 0V40M101.659 0V40M99.2813 0V40M97.2898 0V40M95.6554 0V40M92.0538 0V40M91.8796 0V40M89.9155 0V40M87.5637 0V40M85.1442 0V40M83.1804 0V40M81.7071 0V40M77.6045 0V40M75.4242 0V40M76.7074 0V40M73.283 0V40M72.4419 0V40M67.4666 0V40M68.9548 0V40M64.7353 0V40M62.2099 0V40M61.2523 0V40M61.062 0V40M57.3843 0V40M54.6962 0V40M53.6527 0V40M51.3221 0V40M48.2397 0V40M46.9501 0V40M46.6983 0V40M43.9623 0V40M41.0796 0V40M39.6954 0V40M39.0095 0V40M35.7905 0V40M33.3034 0V40M30.9497 0V40M30.1237 0V40M26.6178 0V40M25.7456 0V40M23.7008 0V40M20.4349 0V40M18.2569 0V40M18.9108 0V40M17.5621 0V40M15.9429 0V40M12.8561 0V40M12.2711 0V40M9.30727 0V40M8.07615 0V40M6.79105 0V40M4.12228 0V40M2.51997 0V40M1.90252 0V40M1 0V40" stroke="#181818" stroke-width="1.32544" stroke-miterlimit="10"/>
</svg>
