<svg xmlns="http://www.w3.org/2000/svg" width="18" height="18" fill="none"><path fill="#fff" fill-rule="evenodd" d="M14.784 1.286h1.285a1.928 1.928 0 0 1 1.928 1.929v2.57H0v-2.57a1.929 1.929 0 0 1 1.928-1.929h1.286v1.929a.643.643 0 0 0 1.285 0V1.286h8.999v1.929a.643.643 0 0 0 1.286 0V1.286Zm-11.57 0V.643a.643.643 0 0 1 1.285 0v.643H3.214Zm10.284 0V.643a.643.643 0 0 1 1.286 0v.643h-1.286Zm4.5 5.786v9A1.929 1.929 0 0 1 16.068 18H1.929A1.928 1.928 0 0 1 0 16.071v-9h17.997Z" clip-rule="evenodd"/></svg>