<svg xmlns="http://www.w3.org/2000/svg" width="512" height="512" fill="#fff"><g data-name="ARROW 48"><path d="M487.84 272.85a24 24 0 0 0-24 24v96.61a70.46 70.46 0 0 1-70.38 70.38H118.54a70.46 70.46 0 0 1-70.38-70.38V118.54a70.46 70.46 0 0 1 70.38-70.38h96.61a24 24 0 1 0 0-48h-96.61A118.52 118.52 0 0 0 .16 118.54v274.92a118.52 118.52 0 0 0 118.38 118.38h274.92a118.52 118.52 0 0 0 118.38-118.38v-96.61a24 24 0 0 0-24-24z"/><path d="M487.33 0h-149.2a24 24 0 0 0-24 23.53C313.88 37 325.21 48 338.67 48H430L238.86 239.2a24 24 0 0 0 0 33.94 24 24 0 0 0 33.94 0L464 82v91.66a24 24 0 0 0 48 0v-149A24.66 24.66 0 0 0 487.33 0z"/></g></svg>