<svg width="600" height="24" viewBox="0 0 600 24" fill="none" xmlns="http://www.w3.org/2000/svg">
<g clip-path="url(#clip0_400_4)">
<path d="M0 23.5117H600V7.18962C600 3.95442 596.359 2.05762 593.708 3.91152L587.318 8.37972C585.941 9.34232 584.11 9.34232 582.733 8.37972L572.343 1.11452C570.967 0.151917 569.135 0.151917 567.759 1.11452L557.368 8.37982C555.992 9.34232 554.161 9.34232 552.784 8.37972L542.394 1.11452C541.017 0.151917 539.186 0.151916 537.81 1.11442L527.419 8.37982C526.042 9.34232 524.211 9.34232 522.835 8.37982L512.444 1.11452C511.068 0.152017 509.237 0.152017 507.86 1.11452L497.47 8.37982C496.093 9.34232 494.262 9.34242 492.885 8.37992L482.495 1.11452C481.118 0.152017 479.287 0.152017 477.91 1.11452L467.521 8.37972C466.144 9.34232 464.313 9.34232 462.936 8.37972L452.547 1.11452C451.17 0.152017 449.339 0.152017 447.962 1.11452L437.572 8.37992C436.195 9.34242 434.364 9.34242 432.987 8.37992L422.597 1.11442C421.22 0.151916 419.389 0.151916 418.012 1.11442L407.622 8.37992C406.245 9.34242 404.414 9.34242 403.037 8.37992L392.646 1.11442C391.27 0.151916 389.439 0.151916 388.062 1.11442L377.671 8.37992C376.295 9.34242 374.464 9.34242 373.087 8.37992L362.696 1.11442C361.319 0.151916 359.488 0.151916 358.112 1.11442L347.721 8.37992C346.345 9.34242 344.513 9.34242 343.137 8.37992L332.745 1.11432C331.369 0.151917 329.538 0.151818 328.161 1.11422L317.769 8.38002C316.393 9.34242 314.562 9.34242 313.185 8.38002L302.789 1.11162C301.414 0.150516 299.586 0.149116 298.21 1.10812L287.763 8.38872C286.389 9.34652 284.563 9.34652 283.189 8.38872L272.739 1.10562C271.364 0.147818 269.539 0.147818 268.165 1.10562L257.714 8.38872C256.34 9.34652 254.514 9.34652 253.14 8.38872L242.689 1.10562C241.315 0.147818 239.49 0.147816 238.115 1.10552L227.664 8.38882C226.29 9.34652 224.465 9.34652 223.09 8.38872L212.64 1.10562C211.265 0.147818 209.44 0.147816 208.066 1.10552L197.615 8.38882C196.24 9.34652 194.415 9.34652 193.041 8.38882L182.59 1.10562C181.215 0.147818 179.39 0.147818 178.016 1.10562L167.566 8.38862C166.191 9.34642 164.366 9.34642 162.992 8.38862L152.542 1.10562C151.167 0.147818 149.342 0.147818 147.967 1.10562L137.516 8.38882C136.142 9.34652 134.317 9.34652 132.942 8.38882L122.491 1.10552C121.117 0.147816 119.292 0.147816 117.917 1.10552L107.466 8.38882C106.092 9.34652 104.267 9.34652 102.892 8.38882L92.4409 1.10552C91.0667 0.147816 89.2412 0.147716 87.867 1.10552L77.4157 8.38882C76.0415 9.34652 74.216 9.34652 72.8418 8.38882L62.3904 1.10552C61.0161 0.147816 59.1907 0.147716 57.8164 1.10552L47.3653 8.38882C45.991 9.34652 44.1656 9.34652 42.7913 8.38882L32.3395 1.10532C30.9653 0.147716 29.1399 0.147716 27.7657 1.10532L17.3132 8.38902C15.939 9.34662 14.1137 9.34662 12.7394 8.38902L6.28687 3.89262C3.635 2.04472 0 3.94222 0 7.17442V23.5117Z" fill="#0A0A0A"/>
</g>
<defs>
<clipPath id="clip0_400_4">
<rect width="600" height="24" fill="white" transform="matrix(1 0 0 -1 0 24)"/>
</clipPath>
</defs>
</svg>
