<svg width="151" height="81" viewBox="0 0 151 81" fill="none" xmlns="http://www.w3.org/2000/svg">
<g clip-path="url(#clip0_172_8)">
<path d="M150.496 22.1499C132.531 21.3078 114.566 20.8466 96.6016 20.7664C78.8572 20.7063 60.9925 20.7063 43.2482 22.1499C34.8873 22.8717 26.4061 23.774 18.2256 25.6386C14.6768 26.4206 11.1279 27.4431 7.93991 29.1875C5.11284 30.6913 1.98502 32.7364 0.782013 35.8642C-0.240543 38.3304 0.481261 40.977 2.22562 42.9619C4.51134 45.5484 8.00006 46.5108 11.2482 47.3529C19.3685 49.5183 27.8497 49.8792 36.2106 49.5785C44.9324 49.2777 53.7143 48.6161 62.376 47.6537C65.8647 47.2928 69.3534 46.7514 72.9023 46.3905C74.9474 46.2101 76.9925 46.0296 79.0978 45.789C81.564 45.5484 84.0301 45.2476 86.4362 44.7664C87.8798 44.4657 89.985 44.1649 91.0677 43.0221C91.9098 42.0597 91.6091 40.7364 90.8873 39.8341C89.7444 38.3905 88.0001 37.6687 86.376 36.9469C82.5665 35.2226 78.6768 33.7389 74.7068 32.4958C67.9098 30.3905 60.8722 29.007 53.7745 28.4657C48.782 28.0446 43.188 28.0446 38.8572 30.8116C36.6918 32.195 35.1279 34.18 34.1655 36.4657C32.6617 40.1349 32.782 44.2251 32.782 48.1349C32.782 52.4055 32.782 56.6161 33.2632 60.8867C33.5038 62.8717 33.8046 64.8567 34.2858 66.8416C34.6467 68.3454 34.9474 70.4507 36.2707 71.4732C39.3986 73.8191 41.0828 66.601 41.3835 64.7965C42.2256 60.5459 43.0276 56.2552 43.7895 51.9243C44.1504 49.9995 44.5715 48.0747 44.7519 46.0898C44.9324 44.7063 44.9324 43.3228 45.0527 41.9394C45.1128 40.4958 45.2933 38.992 45.8948 37.6085C46.1955 36.9469 46.9174 35.5634 47.8798 35.5033C48.4813 35.5033 48.782 36.4055 48.9023 36.8867C49.2031 37.8491 49.3234 38.8717 49.4437 39.8341C49.6241 41.9394 49.5038 43.9845 49.4437 46.0296C49.3835 47.6537 49.5038 49.398 50.5264 50.6612C51.6091 52.0446 52.9925 51.2627 53.5339 49.8191C53.7745 49.2176 54.376 44.2251 55.5189 45.0672C56.2407 45.5484 56.1204 47.2928 56.1805 48.0747C56.1805 49.0371 56.1204 50.0597 56.1805 51.0221C56.2407 51.3228 56.4211 51.6236 56.7219 51.5634C59.3083 51.383 60.5113 48.9168 61.9549 47.1123C62.8572 45.9093 64.1204 45.007 65.3835 44.0446C66.5264 43.1424 67.6091 42.18 68.5113 40.977C70.2557 38.571 71.2181 35.6837 72.0001 32.9168C72.8823 29.5885 73.5439 26.2 73.985 22.7514C74.5264 18.6612 74.7068 14.4507 74.6467 10.3003C74.6467 8.55591 74.5264 6.81155 74.2858 5.06719C74.0452 3.86418 73.7444 2.36042 72.8422 1.45817C72.0001 0.555913 70.5564 0.736364 69.7745 1.69877C68.9324 2.72133 68.9925 4.34539 68.8722 5.60854C68.7118 7.37296 68.6116 9.15742 68.5715 10.9619C68.2707 18.18 68.4512 25.4582 68.1504 32.6762C68.0301 36.2852 67.6692 39.8943 67.4286 43.5033C67.188 47.0522 67.1279 50.601 67.188 54.1499C67.188 61.3078 67.6692 68.5258 67.4888 75.7439C67.4888 76.9469 67.1279 79.4131 65.3234 79.2326C63.9399 79.0522 63.5189 76.8867 63.2181 75.804C62.4963 73.0973 62.4361 70.2101 62.8572 67.4431C63.0377 65.9995 63.3986 64.6161 63.8798 63.2928C64.4211 61.9694 65.1429 60.7664 65.8647 59.5634C67.5489 56.7364 69.173 53.8492 70.9775 51.0822C71.8998 49.7188 72.8823 48.4156 73.9249 47.1725C73.564 47.0923 73.2231 46.992 72.9023 46.8717C73.564 50.0597 76.9926 51.9243 80.0602 50.9619C83.4286 49.9394 84.8121 46.1499 84.9324 42.9619C85.0527 41.0973 84.6918 39.1725 83.8497 37.4281C83.6692 37.0672 83.0076 37.0672 82.8271 37.4281C81.0828 41.2176 80.9023 45.6687 82.4662 49.5183C82.8271 50.2401 83.188 51.1424 84.0903 51.2627C84.9324 51.383 85.5339 50.7213 86.0151 50.1198C87.579 48.195 89.0226 46.1499 90.5264 44.1649C90.2056 44.1649 89.9048 44.1649 89.6241 44.1649C90.9474 46.2702 93.594 47.4131 96.0602 46.8116C98.5264 46.21 100.271 43.9243 100.451 41.398C100.451 40.7965 99.4888 40.6762 99.3083 41.2777C98.8873 42.8416 98.4662 44.6461 99.0677 46.2702C99.5489 47.4732 100.571 48.5559 101.955 48.7364C104.782 49.1574 105.744 45.789 105.985 43.5634C105.584 43.6436 105.183 43.7038 104.782 43.7439C105.805 47.774 111.579 46.992 114.587 46.8116C120.16 46.4105 125.734 45.8692 131.308 45.1875C134.396 44.8266 137.484 44.4055 140.572 43.9243C141.353 43.804 140.993 42.601 140.211 42.7213C135.078 43.4832 129.945 44.1248 124.812 44.6461C122.286 44.9268 119.759 45.1674 117.233 45.3679C115.008 45.5484 112.662 45.8492 110.376 45.7288C108.692 45.6687 106.466 45.3078 105.985 43.4431C105.805 42.7213 104.842 42.9619 104.782 43.5634C104.602 45.007 104.06 47.8341 102.075 47.5935C101.053 47.4131 100.331 46.5108 100.09 45.5484C99.7294 44.2251 100.09 42.8416 100.391 41.5785C100.03 41.4983 99.6692 41.4381 99.3083 41.398C99.188 43.4431 97.6843 45.2476 95.7595 45.789C93.7745 46.3304 91.6091 45.3679 90.5264 43.6837C90.3459 43.4431 89.9249 43.3228 89.6843 43.5634C88.5414 45.0672 87.4587 46.5108 86.3159 48.0146C86.0352 48.3354 85.7545 48.6762 85.4738 49.0371C85.2332 49.3379 84.9324 49.9394 84.5715 50.0597C83.7294 50.4206 83.3083 48.4958 83.1279 47.9544C82.1655 44.7063 82.4061 41.1574 83.8497 38.0296C83.4888 38.0296 83.1479 38.0296 82.8271 38.0296C84.3309 41.0973 84.2106 45.7289 81.8647 48.3755C79.5189 51.0221 74.8271 50.2401 74.0452 46.571C73.985 46.1499 73.3234 45.9695 73.0828 46.3304C70.9775 48.7965 69.173 51.5634 67.5489 54.3303C66.7068 55.7138 65.9249 57.0973 65.0828 58.4807C64.361 59.7439 63.6392 60.8867 63.0377 62.2101C60.9925 67.0221 60.7519 73.1574 62.7369 78.0296C63.2181 79.1123 63.9399 80.195 65.2031 80.3153C66.4662 80.4356 67.6091 79.5334 68.1504 78.4507C68.7519 77.0672 68.6316 75.5033 68.6316 74.0597C68.5915 72.2953 68.5514 70.5509 68.5113 68.8266C68.391 61.6687 68.0301 54.571 68.2106 47.4131C68.3309 43.8642 68.6918 40.3153 68.8722 36.8266C69.0527 33.2176 69.1128 29.6085 69.173 26.0597C69.2331 18.8416 69.1128 11.6236 69.7143 4.46569C69.8346 3.38298 69.9549 1.75892 71.3384 1.63862C71.8196 1.57847 72.1805 1.81907 72.4813 2.17997C73.3835 3.26268 73.564 4.94689 73.6843 6.2702C73.985 9.15742 73.8647 12.0446 73.7444 14.9319C73.4437 21.6687 72.4211 28.4657 70.3158 34.8416C69.3534 37.789 67.9098 40.5559 65.564 42.5409C64.361 43.5033 63.0377 44.3454 61.8948 45.4882C61.0527 46.3304 60.391 47.4131 59.6091 48.4356C58.8873 49.398 57.985 50.3604 56.7219 50.4807C56.9224 50.6812 57.1229 50.8617 57.3234 51.0221C57.1429 49.0371 57.6843 46.6913 56.6617 44.8266C56.3008 44.0446 55.3986 43.5634 54.5564 43.9845C53.7745 44.4055 53.4136 45.4281 53.2331 46.2702C52.9324 47.2928 52.8722 48.3755 52.5715 49.398C52.4512 49.6386 52.3309 49.9995 52.0903 50.18C51.5489 50.5409 51.1279 49.6988 50.9474 49.2777C50.5865 48.4958 50.4662 47.5935 50.4662 46.7514C50.4662 44.6461 50.7068 42.6612 50.5865 40.5559C50.4662 38.8717 50.4061 36.5258 49.2632 35.0822C47.9399 33.5183 46.1354 35.0221 45.2933 36.2852C43.8497 38.6311 43.8497 41.6988 43.7294 44.3454C43.5489 48.0747 42.7068 51.804 41.985 55.4131C41.564 57.5183 41.1429 59.6236 40.782 61.7288C40.4211 63.5935 40.1805 65.5183 39.579 67.3228C39.2181 68.4055 37.7745 72.195 36.4512 69.9695C36.0301 69.3078 35.8497 68.4657 35.6692 67.6236C35.3885 66.581 35.1479 65.5384 34.9474 64.4958C34.1655 60.4055 33.985 56.2552 33.9249 52.1048C33.8848 50.0196 33.8848 47.9344 33.9249 45.8491C33.9249 43.7439 33.9249 41.6386 34.3459 39.5935C34.8873 36.9469 36.0903 34.4206 38.1955 32.6161C40.0602 31.0522 42.3459 30.2101 44.6918 29.789C49.7444 28.8266 55.0377 29.5484 60.0903 30.2702C68.2106 31.4131 76.0903 33.6988 83.6091 36.8867C85.3534 37.6085 87.2783 38.2702 88.8422 39.3529C89.6843 39.8943 91.3083 41.5183 90.1053 42.4206C89.564 42.8416 88.8422 43.0822 88.1805 43.2627C87.2181 43.5634 86.1956 43.7439 85.173 43.9243C80.9625 44.6461 76.6316 44.8266 72.361 45.3078C68.6316 45.7288 64.9625 46.2702 61.2331 46.6311C56.9424 47.1123 52.6316 47.4933 48.3008 47.774C40.1204 48.3755 31.8196 48.9168 23.579 48.2552C19.5489 47.9544 15.5189 47.3529 11.5489 46.3304C8.36096 45.4882 4.69179 44.5258 2.58652 41.6988C-1.9849 35.6236 6.91735 30.4507 11.6692 28.6461C14.9174 27.383 18.4061 26.601 21.8346 25.9394C26.0452 25.1574 30.2557 24.5559 34.4662 24.0747C51.5489 22.0296 68.6918 21.8491 85.8346 21.7288C103.198 21.6486 120.561 21.8892 137.925 22.4507C142.095 22.6111 146.286 22.7915 150.496 22.992C151.038 22.992 151.038 22.1499 150.496 22.1499Z" fill="white"/>
</g>
<defs>
<clipPath id="clip0_172_8">
<rect width="150.977" height="80" fill="white" transform="translate(0 0.375488)"/>
</clipPath>
</defs>
</svg>
