<svg width="12" height="12" viewBox="0 0 12 12" fill="none" xmlns="http://www.w3.org/2000/svg">
<g clip-path="url(#clip0_235_41)">
<path d="M2.99432 1.33496H1.01337L9.22019 11.5227H11.2011L2.99432 1.33496Z" stroke="#8D8D8D" stroke-width="0.955103" stroke-linecap="round" stroke-linejoin="round"/>
<path d="M1.35614 11.6782C1.25647 11.6833 1.15552 11.6601 1.06903 11.603L0.993835 11.5415C0.894145 11.4417 0.849137 11.3088 0.85614 11.1782L1.35614 11.6782ZM5.6579 7.55225L1.89423 11.3159L1.21844 10.6401L4.98212 6.87744L5.6579 7.55225ZM10.9948 2.21533L7.23114 5.979L6.55634 5.30322L10.319 1.53955L10.9948 2.21533ZM10.8571 1.17725C10.9572 1.17188 11.0583 1.19706 11.1452 1.25439L11.2204 1.31494C11.3199 1.41443 11.3638 1.54699 11.3571 1.67725L10.8571 1.17725Z" fill="#8D8D8D" stroke="#8D8D8D" stroke-width="0.636736"/>
</g>
<defs>
<clipPath id="clip0_235_41">
<rect width="12" height="12" fill="white"/>
</clipPath>
</defs>
</svg>
