<svg xmlns="http://www.w3.org/2000/svg" width="119" height="26" fill="none"><path fill="#D9FFAA" d="M12.5 25.375c6.904 0 12.5-5.596 12.5-12.5 0-6.903-5.596-12.5-12.5-12.5S0 5.972 0 12.875c0 6.904 5.596 12.5 12.5 12.5Z"/><mask id="a" width="25" height="26" x="0" y="0" maskUnits="userSpaceOnUse" style="mask-type:alpha"><path fill="#D9FFAA" d="M12.5 25.375c6.904 0 12.5-5.596 12.5-12.5 0-6.903-5.596-12.5-12.5-12.5S0 5.972 0 12.875c0 6.904 5.596 12.5 12.5 12.5Z"/></mask><g fill="#0A5C45" mask="url(#a)"><path d="M12.195 12.727A2.039 2.039 0 1 0 10.68 8.94a2.039 2.039 0 0 0 1.515 3.786Z"/><path d="M3.472 12.956s7.624 5.52 10.297 9.642c0 0 4.357-16.771 18.22-19.445 0 0-13.269 1.486-18.814 13.269 0 0-6.04-3.367-9.703-3.466Z"/></g><path fill="#fff" d="M40.382 18.012c-.875 0-1.66-.21-2.352-.629-.693-.419-1.237-1.018-1.634-1.798-.396-.783-.595-1.715-.595-2.795 0-1.09.199-2.024.595-2.803.401-.784.946-1.386 1.634-1.805.693-.42 1.477-.629 2.352-.629a4.79 4.79 0 0 1 1.51.233c.474.155.898.38 1.272.676.373.297.681.659.923 1.087.246.429.41.914.492 1.456h-1.545a2.322 2.322 0 0 0-.335-.875 2.29 2.29 0 0 0-.595-.642 2.411 2.411 0 0 0-.786-.397 3.01 3.01 0 0 0-.916-.136c-.583 0-1.11.148-1.58.444-.464.292-.83.725-1.1 1.299-.264.57-.396 1.267-.396 2.092 0 .829.134 1.529.403 2.098.27.565.636.994 1.1 1.285.466.292.987.438 1.566.438.324 0 .63-.044.916-.13a2.57 2.57 0 0 0 .786-.39 2.367 2.367 0 0 0 .937-1.497h1.545a4.035 4.035 0 0 1-.472 1.388c-.237.415-.54.775-.91 1.08-.368.3-.79.535-1.264.704a4.714 4.714 0 0 1-1.551.246Zm5.625-.137v-7.642h1.429v1.223h.082c.141-.41.387-.733.738-.97a2.092 2.092 0 0 1 1.203-.363c.091 0 .199.005.322.014.127.005.23.012.307.02v1.423a3.81 3.81 0 0 0-.78-.082c-.35 0-.664.075-.942.225a1.67 1.67 0 0 0-.65.608 1.68 1.68 0 0 0-.232.89v4.654h-1.477Zm8.094.158c-.748 0-1.395-.162-1.942-.486a3.25 3.25 0 0 1-1.264-1.367c-.292-.592-.438-1.283-.438-2.071 0-.784.144-1.474.43-2.071.292-.597.7-1.062 1.224-1.395.53-.337 1.149-.506 1.86-.506.433 0 .852.07 1.258.212.405.141.77.365 1.093.67.324.305.58.702.766 1.19.191.487.287 1.075.287 1.763v.533h-6.077v-1.114h5.311l-.69.37c0-.47-.073-.885-.219-1.245a1.818 1.818 0 0 0-.656-.84c-.287-.206-.645-.308-1.073-.308-.429 0-.795.102-1.1.307a2 2 0 0 0-.691.814c-.16.337-.24.706-.24 1.107v.759c0 .524.092.968.274 1.333.182.365.435.643.759.834.328.191.708.287 1.141.287.283 0 .538-.04.766-.123a1.565 1.565 0 0 0 .984-.977l1.409.266c-.114.41-.315.77-.602 1.08a2.92 2.92 0 0 1-1.087.725 4.076 4.076 0 0 1-1.483.253Zm6.808.007c-.483 0-.92-.09-1.313-.267a2.195 2.195 0 0 1-.93-.793c-.227-.346-.341-.768-.341-1.265 0-.433.082-.786.246-1.06.169-.277.394-.498.677-.662a3.45 3.45 0 0 1 .943-.37 10.03 10.03 0 0 1 1.067-.19c.46-.051.831-.094 1.114-.13.282-.037.487-.094.615-.172.132-.082.198-.212.198-.39v-.034c0-.432-.123-.767-.369-1.004-.241-.237-.601-.356-1.08-.356-.497 0-.89.11-1.182.328-.288.214-.486.458-.595.732l-1.402-.322c.17-.464.413-.838.732-1.12a3.041 3.041 0 0 1 1.107-.63 4.35 4.35 0 0 1 1.313-.198c.305 0 .629.037.97.11.342.068.664.198.964.39.306.186.554.455.745.806.192.35.288.804.288 1.36v5.072H63.22V16.83h-.055a2.01 2.01 0 0 1-.43.56 2.275 2.275 0 0 1-.74.465c-.3.123-.662.185-1.086.185Zm.321-1.19c.415 0 .768-.08 1.06-.24a1.75 1.75 0 0 0 .67-.642c.155-.264.232-.544.232-.84v-.992c-.054.05-.157.098-.307.144-.15.045-.322.084-.513.116s-.378.061-.56.089c-.183.023-.336.04-.459.055a3.89 3.89 0 0 0-.786.191 1.333 1.333 0 0 0-.574.37c-.141.159-.212.37-.212.635 0 .369.137.647.41.834.274.187.62.28 1.04.28Zm8.709-6.617v1.196h-4.17v-1.196h4.17Zm-3.056-1.818h1.484v7.218c0 .351.073.609.218.773.146.16.381.239.705.239a2.802 2.802 0 0 0 .52-.055l.28 1.23c-.151.05-.315.09-.493.117a3.494 3.494 0 0 1-.533.041c-.66 0-1.19-.184-1.586-.554-.396-.373-.595-.87-.595-1.49v-7.52Zm4.402 9.46v-7.642h1.477v7.642h-1.477Zm.746-8.818a.927.927 0 0 1-.663-.26.828.828 0 0 1-.274-.622c0-.246.091-.455.274-.629a.927.927 0 0 1 .663-.26.92.92 0 0 1 .656.26c.187.174.28.383.28.63a.82.82 0 0 1-.28.621.92.92 0 0 1-.656.26Zm8.954 1.176-2.761 7.642h-1.6l-2.768-7.642h1.592l1.942 5.892h.082l1.927-5.892h1.586Zm4.115 7.8c-.747 0-1.394-.162-1.941-.486a3.248 3.248 0 0 1-1.265-1.367c-.291-.592-.437-1.283-.437-2.071 0-.784.143-1.474.43-2.071.292-.597.7-1.062 1.224-1.395.529-.337 1.148-.506 1.86-.506.432 0 .852.07 1.257.212.406.141.77.365 1.094.67.324.305.579.702.766 1.19.191.487.287 1.075.287 1.763v.533h-6.077v-1.114h5.311l-.69.37c0-.47-.073-.885-.22-1.245a1.818 1.818 0 0 0-.655-.84c-.287-.206-.645-.308-1.074-.308-.428 0-.795.102-1.1.307a2 2 0 0 0-.69.814c-.16.337-.24.706-.24 1.107v.759c0 .524.091.968.274 1.333.182.365.435.643.758.834.329.191.709.287 1.142.287.282 0 .538-.04.766-.123a1.577 1.577 0 0 0 .984-.977l1.408.266c-.114.41-.314.77-.601 1.08a2.92 2.92 0 0 1-1.087.725 4.082 4.082 0 0 1-1.484.253Zm4.703-.158V7.69h3.637c.788 0 1.442.146 1.962.437.52.288.909.682 1.169 1.183.26.497.39 1.057.39 1.682a3.61 3.61 0 0 1-.39 1.688c-.26.497-.652.891-1.176 1.183-.52.287-1.176.43-1.969.43h-2.488v-1.298h2.345c.505 0 .913-.087 1.223-.26a1.56 1.56 0 0 0 .684-.711c.146-.305.219-.65.219-1.032 0-.388-.073-.73-.22-1.026a1.52 1.52 0 0 0-.683-.704c-.314-.168-.724-.253-1.23-.253H91.34v8.866h-1.538Zm8.524 0v-7.642h1.477v7.642h-1.477Zm.745-8.818a.928.928 0 0 1-.663-.26.828.828 0 0 1-.273-.622c0-.246.091-.455.273-.629a.928.928 0 0 1 .663-.26.92.92 0 0 1 .657.26c.186.174.28.383.28.63a.82.82 0 0 1-.28.621.92.92 0 0 1-.657.26Zm3.603 1.176 1.674 2.98 1.703-2.98h1.633l-2.378 3.828 2.392 3.814h-1.62l-1.73-2.857-1.702 2.857h-1.633l2.372-3.814-2.345-3.828h1.634Zm9.235 7.8c-.748 0-1.395-.162-1.942-.486a3.245 3.245 0 0 1-1.264-1.367c-.292-.592-.438-1.283-.438-2.071 0-.784.144-1.474.431-2.071a3.348 3.348 0 0 1 1.224-1.395c.528-.337 1.148-.506 1.859-.506.433 0 .852.07 1.258.212.405.141.77.365 1.093.67.324.305.579.702.766 1.19.191.487.287 1.075.287 1.763v.533h-6.077v-1.114h5.312l-.691.37c0-.47-.073-.885-.219-1.245a1.81 1.81 0 0 0-.656-.84c-.287-.206-.645-.308-1.073-.308-.429 0-.795.102-1.101.307a2 2 0 0 0-.69.814 2.55 2.55 0 0 0-.239 1.107v.759c0 .524.091.968.273 1.333.182.365.435.643.759.834.328.191.708.287 1.141.287.283 0 .538-.04.766-.123a1.565 1.565 0 0 0 .984-.977l1.409.266c-.114.41-.315.77-.602 1.08-.287.31-.649.552-1.087.725a4.076 4.076 0 0 1-1.483.253Zm6.07-10.343v10.185h-1.477V7.69h1.477Z"/></svg>