<svg xmlns="http://www.w3.org/2000/svg" width="97" height="26" fill="none"><mask id="a" width="25" height="26" x="0" y="0" maskUnits="userSpaceOnUse" style="mask-type:luminance"><path fill="#fff" d="M25 .375H0v25h25v-25Z"/></mask><g mask="url(#a)"><path fill="#FC415B" fill-rule="evenodd" d="m10.565 5.301-5.783 5.783a1.344 1.344 0 0 0 1.901 1.902 1.344 1.344 0 1 1 1.902 1.9l-1.65 1.647a1.345 1.345 0 1 0 1.902 1.902l1.647-1.647a1.344 1.344 0 1 1 1.9 1.901l.145-.142a1.344 1.344 0 0 0 1.904 1.897l5.783-5.783a1.345 1.345 0 0 0-1.902-1.901l-3.176 3.176a1.345 1.345 0 0 1-1.899-1.904l2.477-2.477a1.344 1.344 0 0 0-1.901-1.9c-.15.148-2.084 2.083-2.477 2.476a1.344 1.344 0 1 1-1.902-1.9l3.027-3.028a1.345 1.345 0 0 0-1.9-1.902M5.182.372h14.631A5.201 5.201 0 0 1 25 5.558v14.63a5.201 5.201 0 0 1-5.186 5.185H5.185A5.202 5.202 0 0 1 0 20.188V5.558A5.201 5.201 0 0 1 5.185.372h-.002Z" clip-rule="evenodd"/></g><path fill="#fff" d="M36.149 17.875V7.69h3.739c.72 0 1.317.118 1.79.355.475.237.828.559 1.06.964.237.401.356.852.356 1.354 0 .424-.08.781-.24 1.073a1.881 1.881 0 0 1-.621.697c-.26.174-.547.301-.862.383v.096c.342.018.675.127.998.328.324.2.59.485.8.854.214.365.321.812.321 1.34 0 .52-.123.987-.369 1.402-.241.41-.615.736-1.12.977-.507.242-1.156.362-1.95.362H36.15Zm1.538-1.312h2.215c.738 0 1.266-.144 1.585-.43.32-.288.479-.645.479-1.074 0-.323-.082-.617-.246-.882a1.714 1.714 0 0 0-.69-.642c-.301-.16-.657-.24-1.067-.24h-2.276v3.268Zm0-4.464h2.064c.342 0 .652-.066.93-.198a1.58 1.58 0 0 0 .656-.56 1.51 1.51 0 0 0 .246-.855c0-.42-.148-.77-.444-1.053-.292-.287-.74-.43-1.347-.43h-2.105v3.096Zm8.134 8.634a2.818 2.818 0 0 1-.608-.048 1.68 1.68 0 0 1-.41-.116l.362-1.21.102.027c.379.096.698.09.957-.02.265-.105.486-.399.664-.882l.184-.506-2.789-7.745h1.593l1.928 5.933h.082l1.934-5.933h1.593l-3.145 8.654c-.145.401-.33.738-.553 1.012a2.095 2.095 0 0 1-.807.622c-.31.141-.672.212-1.087.212Zm10.247-10.5v1.196h-4.17v-1.196h4.17Zm-3.056-1.818h1.484v7.218c0 .351.073.609.218.773.146.16.38.239.705.239a2.797 2.797 0 0 0 .52-.055l.28 1.23c-.151.05-.315.09-.493.117a3.494 3.494 0 0 1-.533.041c-.66 0-1.19-.184-1.586-.554-.396-.373-.595-.87-.595-1.49v-7.52Zm7.608 9.618c-.747 0-1.394-.162-1.941-.486a3.25 3.25 0 0 1-1.265-1.367c-.291-.592-.437-1.283-.437-2.071 0-.784.143-1.474.43-2.071.292-.597.7-1.062 1.224-1.395.529-.337 1.149-.506 1.86-.506.432 0 .852.07 1.257.212.406.141.77.365 1.094.67.324.305.579.702.766 1.19.191.487.287 1.075.287 1.763v.533h-6.077v-1.114h5.311l-.69.37c0-.47-.073-.885-.219-1.245a1.818 1.818 0 0 0-.656-.84c-.287-.206-.645-.308-1.074-.308-.428 0-.795.102-1.1.307a2 2 0 0 0-.69.814c-.16.337-.24.706-.24 1.107v.759c0 .524.091.968.274 1.333.182.365.435.643.758.834.329.191.71.287 1.142.287.283 0 .538-.04.766-.123a1.576 1.576 0 0 0 .984-.977l1.408.266c-.114.41-.314.77-.601 1.08a2.92 2.92 0 0 1-1.087.725 4.082 4.082 0 0 1-1.484.253Zm8.955-.02c-.875 0-1.659-.21-2.351-.63-.693-.419-1.238-1.018-1.634-1.798-.397-.783-.595-1.715-.595-2.795 0-1.09.198-2.024.595-2.803.4-.784.945-1.386 1.634-1.805.692-.42 1.476-.629 2.351-.629a4.79 4.79 0 0 1 1.51.233c.475.155.899.38 1.272.676.374.297.682.659.923 1.087.246.429.41.914.492 1.456h-1.544a2.321 2.321 0 0 0-.335-.875 2.292 2.292 0 0 0-.595-.642 2.412 2.412 0 0 0-.786-.397 3.01 3.01 0 0 0-.916-.136c-.584 0-1.11.148-1.58.444-.464.292-.831.725-1.1 1.299-.264.57-.397 1.267-.397 2.092 0 .829.135 1.529.404 2.098.269.565.636.994 1.1 1.285.465.292.987.438 1.566.438.323 0 .629-.044.916-.13.287-.087.549-.216.786-.39a2.367 2.367 0 0 0 .937-1.497h1.544a4.035 4.035 0 0 1-.471 1.388c-.237.415-.54.775-.91 1.08-.369.3-.79.535-1.264.704a4.715 4.715 0 0 1-1.552.246Zm5.626-.138v-7.642h1.429v1.223h.082c.14-.41.387-.733.738-.97a2.092 2.092 0 0 1 1.203-.363c.091 0 .198.005.321.014.128.005.23.012.308.02v1.423a3.81 3.81 0 0 0-.78-.082c-.35 0-.665.075-.943.225a1.67 1.67 0 0 0-.65.608 1.678 1.678 0 0 0-.232.89v4.654h-1.476Zm7.225.165c-.483 0-.92-.09-1.312-.267a2.195 2.195 0 0 1-.93-.793c-.228-.346-.342-.768-.342-1.265 0-.433.082-.786.246-1.06a1.9 1.9 0 0 1 .677-.662 3.45 3.45 0 0 1 .943-.37 9.898 9.898 0 0 1 1.067-.19c.46-.051.831-.094 1.114-.13.283-.037.488-.094.615-.172.132-.082.199-.212.199-.39v-.034c0-.432-.124-.767-.37-1.004-.241-.237-.601-.356-1.08-.356-.496 0-.89.11-1.182.328-.287.214-.486.458-.595.732l-1.401-.322c.168-.464.412-.838.731-1.12a3.041 3.041 0 0 1 1.108-.63 4.339 4.339 0 0 1 1.312-.198c.305 0 .629.037.97.11.343.068.664.198.965.39.305.186.553.455.745.806.191.35.287.804.287 1.36v5.072h-1.456V16.83h-.055a2.01 2.01 0 0 1-.43.56 2.275 2.275 0 0 1-.739.465c-.3.123-.663.185-1.087.185Zm.322-1.19c.414 0 .767-.08 1.06-.24a1.75 1.75 0 0 0 .669-.642c.155-.264.232-.544.232-.84v-.992c-.054.05-.157.098-.307.144-.15.045-.322.084-.513.116a35.74 35.74 0 0 1-.56.089 36.65 36.65 0 0 1-.458.055c-.288.04-.55.104-.787.191a1.333 1.333 0 0 0-.574.37c-.141.159-.212.37-.212.635 0 .369.137.647.41.834.274.187.62.28 1.04.28Zm8.79-6.617v1.196h-4.313v-1.196h4.313ZM88.4 17.875v-8.53c0-.475.105-.869.315-1.183.214-.32.492-.556.834-.711.346-.16.718-.24 1.114-.24.306 0 .565.025.78.076.214.05.371.093.471.13L91.56 8.62a3.734 3.734 0 0 0-.267-.076 1.604 1.604 0 0 0-.396-.04c-.36 0-.62.09-.78.273-.16.178-.239.437-.239.78v8.318H88.4Zm7.916-7.642v1.196h-4.17v-1.196h4.17Zm-3.055-1.818h1.483v7.218c0 .351.073.609.219.773.146.16.38.239.704.239a2.802 2.802 0 0 0 .52-.055l.28 1.23c-.15.05-.315.09-.492.117a3.494 3.494 0 0 1-.534.041c-.66 0-1.19-.184-1.586-.554-.396-.373-.594-.87-.594-1.49v-7.52Z"/></svg>