<svg xmlns="http://www.w3.org/2000/svg" width="109" height="26" fill="none"><g clip-path="url(#a)"><path fill="#8751FF" d="M21.484.375H3.906A3.906 3.906 0 0 0 0 4.282v17.187a3.906 3.906 0 0 0 3.906 3.906h17.578a3.906 3.906 0 0 0 3.907-3.906V4.282A3.906 3.906 0 0 0 21.484.375Z"/><path fill="#FEFEFE" d="M18.008 8.188h2.5v9.375h-2.5l-.625.625v2.5H8.008v-2.5l-.625-.625h-2.5V8.188h2.5l.625-.625v-2.5h9.375v2.5l.625.625Zm-.625 9.375V8.188H8.008v9.375h9.375Zm-6.25-3.125v-3.125h3.125v3.125h-3.125Z"/></g><path fill="#fff" d="M36.45 17.875V7.69h3.74c.72 0 1.317.118 1.791.355s.827.559 1.06.964c.237.401.355.852.355 1.354 0 .424-.08.781-.239 1.073a1.882 1.882 0 0 1-.622.697c-.26.174-.547.301-.861.383v.096c.341.018.674.127.998.328.323.2.59.485.8.854.214.365.32.812.32 1.34 0 .52-.122.987-.368 1.402-.242.41-.616.736-1.121.977-.506.242-1.156.362-1.949.362h-3.903Zm1.539-1.312h2.215c.738 0 1.267-.144 1.586-.43.319-.288.478-.645.478-1.074 0-.323-.082-.617-.246-.882a1.714 1.714 0 0 0-.69-.642c-.301-.16-.657-.24-1.067-.24H37.99v3.268Zm0-4.464h2.065c.341 0 .651-.066.93-.198a1.58 1.58 0 0 0 .655-.56 1.51 1.51 0 0 0 .246-.855c0-.42-.148-.77-.444-1.053-.291-.287-.74-.43-1.347-.43H37.99v3.096Zm7.205 5.776v-7.642h1.428v1.223h.083c.14-.41.387-.733.738-.97a2.091 2.091 0 0 1 1.203-.363c.091 0 .198.005.321.014.128.005.23.012.308.02v1.423a3.81 3.81 0 0 0-.78-.082c-.35 0-.665.075-.943.225a1.67 1.67 0 0 0-.65.608 1.68 1.68 0 0 0-.232.89v4.654h-1.476Zm5.079 0v-7.642h1.476v7.642h-1.476Zm.745-8.818a.928.928 0 0 1-.663-.26.828.828 0 0 1-.274-.622c0-.246.091-.455.274-.629a.928.928 0 0 1 .663-.26.92.92 0 0 1 .656.26c.187.174.28.383.28.63a.819.819 0 0 1-.28.621.919.919 0 0 1-.656.26Zm5.619 11.84c-.912 0-1.63-.17-2.154-.513-.524-.341-.886-.747-1.087-1.216l1.272-.527c.091.146.212.3.362.465.155.164.362.303.622.417.26.114.595.17 1.005.17.56 0 1.026-.136 1.395-.41.369-.268.553-.701.553-1.298v-1.497h-.102c-.082.16-.208.34-.376.54a2.182 2.182 0 0 1-.69.513c-.292.145-.673.218-1.142.218a3.162 3.162 0 0 1-1.627-.424c-.479-.287-.861-.706-1.148-1.257-.283-.556-.424-1.24-.424-2.051 0-.811.139-1.506.417-2.085.282-.583.665-1.03 1.148-1.34a2.985 2.985 0 0 1 1.648-.465c.474 0 .856.08 1.148.24.296.154.526.337.69.546.164.21.292.395.383.554h.11v-1.244h1.442v7.813c0 .657-.153 1.194-.458 1.614-.3.419-.711.729-1.23.93-.52.204-1.106.307-1.757.307Zm-.014-4.375c.643 0 1.135-.221 1.477-.663.346-.447.52-1.064.52-1.853 0-.515-.076-.966-.226-1.353a1.991 1.991 0 0 0-.67-.916c-.297-.223-.663-.335-1.101-.335-.447 0-.82.116-1.121.349-.296.227-.52.54-.67.936a3.67 3.67 0 0 0-.226 1.32c0 .496.076.936.226 1.319.15.378.376.672.677.881.305.21.676.315 1.114.315Zm6.637-3.179v4.532h-1.476V7.69h1.456v3.8h.102c.178-.414.45-.742.814-.984.369-.246.85-.369 1.442-.369.524 0 .982.107 1.374.322.392.214.698.535.916.963.224.429.335.962.335 1.6v4.853h-1.49V13.2c0-.565-.146-1.003-.438-1.313-.287-.31-.688-.465-1.203-.465-.355 0-.67.078-.943.233-.273.15-.49.367-.65.65-.159.282-.239.628-.239 1.038Zm10.22-3.11v1.196h-4.17v-1.196h4.17Zm-3.056-1.818h1.484v7.218c0 .351.073.609.218.773.146.16.38.239.704.239a2.804 2.804 0 0 0 .52-.055l.28 1.23c-.15.05-.314.09-.492.117a3.496 3.496 0 0 1-.533.041c-.661 0-1.19-.184-1.586-.554-.397-.373-.595-.87-.595-1.49v-7.52Zm8.764 9.597c-.875 0-1.66-.21-2.352-.629-.693-.419-1.237-1.018-1.634-1.798-.396-.783-.594-1.715-.594-2.795 0-1.09.198-2.024.594-2.803.401-.784.946-1.386 1.634-1.805.693-.42 1.477-.629 2.352-.629a4.79 4.79 0 0 1 1.51.233c.474.155.898.38 1.272.676.374.297.681.659.923 1.087.246.429.41.914.492 1.456H81.84a2.321 2.321 0 0 0-.335-.875 2.29 2.29 0 0 0-.595-.642 2.41 2.41 0 0 0-.786-.397 3.01 3.01 0 0 0-.916-.136c-.583 0-1.11.148-1.579.444-.465.292-.832.725-1.1 1.299-.265.57-.397 1.267-.397 2.092 0 .829.134 1.529.403 2.098.27.565.636.994 1.1 1.285.466.292.987.438 1.566.438.324 0 .63-.044.916-.13a2.57 2.57 0 0 0 .786-.39 2.367 2.367 0 0 0 .937-1.497h1.545a4.035 4.035 0 0 1-.472 1.388c-.237.415-.54.775-.909 1.08-.37.3-.79.535-1.265.704a4.714 4.714 0 0 1-1.551.246Zm8.831.02c-.715 0-1.342-.163-1.88-.491a3.328 3.328 0 0 1-1.244-1.381c-.291-.593-.437-1.28-.437-2.065 0-.793.146-1.486.437-2.078a3.319 3.319 0 0 1 1.245-1.388c.537-.328 1.164-.492 1.88-.492.72 0 1.346.164 1.88.492.532.329.947.791 1.243 1.388.297.593.445 1.285.445 2.078 0 .784-.148 1.472-.445 2.065a3.328 3.328 0 0 1-1.244 1.38c-.533.329-1.16.493-1.88.493Zm0-1.25c.47 0 .857-.123 1.162-.37a2.15 2.15 0 0 0 .677-.977c.15-.41.226-.857.226-1.34 0-.492-.075-.943-.226-1.353a2.16 2.16 0 0 0-.677-.985c-.305-.246-.692-.369-1.162-.369-.465 0-.85.123-1.155.37-.3.245-.526.574-.677.984-.15.41-.225.861-.225 1.353 0 .483.075.93.225 1.34.15.406.376.731.677.978.305.246.69.369 1.155.369Zm7.766 1.244c-.62 0-1.171-.157-1.655-.472-.483-.319-.86-.772-1.134-1.36-.274-.593-.41-1.299-.41-2.12 0-.829.139-1.537.416-2.125.279-.588.659-1.037 1.142-1.347a2.972 2.972 0 0 1 1.64-.465c.48 0 .862.08 1.15.24.29.154.516.337.676.546.164.21.29.395.376.554h.089V7.69h1.476v10.185H98.11v-1.189h-.123c-.087.16-.214.344-.383.554-.169.21-.399.394-.69.554-.287.154-.663.232-1.128.232Zm.321-1.265c.428 0 .79-.114 1.087-.342.296-.227.52-.544.67-.95.155-.405.232-.875.232-1.408 0-.533-.075-.998-.225-1.395-.15-.4-.374-.71-.67-.93-.297-.223-.661-.334-1.094-.334-.447 0-.818.116-1.114.349a2.12 2.12 0 0 0-.67.95c-.15.4-.226.854-.226 1.36 0 .51.075.97.226 1.38.15.406.373.728.67.965.3.237.672.355 1.114.355Zm8.442 1.272c-.747 0-1.394-.162-1.941-.486a3.247 3.247 0 0 1-1.265-1.367c-.292-.592-.437-1.283-.437-2.071 0-.784.143-1.474.43-2.071.292-.597.7-1.062 1.224-1.395.528-.337 1.148-.506 1.859-.506.433 0 .852.07 1.258.212.406.141.77.365 1.094.67.323.305.579.702.765 1.19.192.487.287 1.075.287 1.763v.533h-6.077v-1.114h5.312l-.691.37c0-.47-.072-.885-.218-1.245a1.819 1.819 0 0 0-.657-.84c-.287-.206-.644-.308-1.073-.308-.428 0-.795.102-1.1.307a2.003 2.003 0 0 0-.691.814 2.564 2.564 0 0 0-.239 1.107v.759c0 .524.091.968.273 1.333.183.365.436.643.759.834a2.23 2.23 0 0 0 1.142.287c.282 0 .538-.04.765-.123a1.577 1.577 0 0 0 .985-.977l1.408.266c-.114.41-.314.77-.602 1.08-.287.31-.649.552-1.087.725a4.072 4.072 0 0 1-1.483.253Z"/><defs><clipPath id="a"><path fill="#fff" d="M0 .375h25.391v25H0z"/></clipPath></defs></svg>